<svg id="Layer_1" data-name="Layer 1" xmlns="http://www.w3.org/2000/svg" width="582" height="700.39" viewBox="0 0 582 700.39"><defs><style>.cls-1{fill:#053c50;}.cls-2{fill:#305a66;}.cls-3{fill:#9ec400;}.cls-4{fill:#32afea;}.cls-5{fill:#7856af;}.cls-6{fill:#fff;}</style></defs><title>leverage</title><path class="cls-1" d="M0 0h582v700.39H0z"/><path class="cls-2" d="M173.3 470.8l-1.95-.05-.05 5.05 2 .05v-5.05zm0 10l-1.95-.05-.05 5.05 2 .05v-5.05zm0-60l-1.95-.05-.05 5.05 2 .05v-5.05zm0 40l-1.95-.05-.05 5.05 2 .05v-5.05zm0-20l-1.95-.05-.05 5.05 2 .05v-5.05zm0 50l-1.95-.05-.05 5.05 2 .05v-5.05zm0-40l-1.95-.05-.05 5.05 2 .05v-5.05zm0-20l-1.95-.05-.05 5.05 2 .05v-5.05zm0 70l-1.95-.05-.05 5.05 2 .05v-5.05zm15.06 24.84l5.1.05v-1.95l-5.05-.05-.05 1.95zm20 0l5.1.05v-1.95l-5.05-.05-.05 1.95zm-10 0l5.1.05v-1.95l-5.05-.05-.05 1.95zM173.3 510.8l-1.95-.05-.05 5.05 2 .05v-5.05zm5.06 14.84l5.1.05v-1.95l-5.05-.05-.05 1.95zm-5.06-4.84l-1.95-.05-.05 4.89 2.16.05v-1.95l-.16-.05v-2.89zm0-220l-1.95-.05-.05 5.05 2 .05v-5.05zm0-10l-1.95-.05-.05 5.05 2 .05v-5.05zm45.06 234.84l5.1.05v-1.95l-5.05-.05-.05 1.95zM173.3 310.8l-1.95-.05-.05 5.05 2 .05v-5.05zm0 10l-1.95-.05-.05 5.05 2 .05v-5.05zm0-60l-1.95-.05-.05 5.05 2 .05v-5.05zm0 20l-1.95-.05-.05 5.05 2 .05v-5.05zm0-10l-1.95-.05-.05 5.05 2 .05v-5.05zm0 120l-1.95-.05-.05 5.05 2 .05v-5.05zm0 20l-1.95-.05-.05 5.05 2 .05v-5.05zm0-30l-1.95-.05-.05 5.05 2 .05v-5.05zm0 20l-1.95-.05-.05 5.05 2 .05v-5.05zm0-30l-1.95-.05-.05 5.05 2 .05v-5.05zm0-40l-1.95-.05-.05 5.05 2 .05v-5.05zm0 20l-1.95-.05-.05 5.05 2 .05v-5.05zm0 10l-1.95-.05-.05 5.05 2 .05v-5.05zm0-20l-1.95-.05-.05 5.05 2 .05v-5.05zm285.06 184.84l5.1.05v-1.95l-5.05-.05-.05 1.95zm-30 0l5.1.05v-1.95l-5.05-.05-.05 1.95zm20 0l5.1.05v-1.95l-5.05-.05-.05 1.95zm-10 0l5.1.05v-1.95l-5.05-.05-.05 1.95zm-20 0l5.1.05v-1.95l-5.05-.05-.05 1.95zm-20 0l5.1.05v-1.95l-5.05-.05-.05 1.95zm-10 0l5.1.05v-1.95l-5.05-.05-.05 1.95zm20 0l5.1.05v-1.95l-5.05-.05-.05 1.95zm110 0l5.1.05v-1.95l-5.05-.05-.05 1.95zm-10 0l5.1.05v-1.95l-5.05-.05-.05 1.95zm20.05-1.95l-.05 1.95 5.1.05v-1.95l-5.05-.05zm-60.05 1.95l5.1.05v-1.95l-5.05-.05-.05 1.95zm30 0l5.1.05v-1.95l-5.05-.05-.05 1.95zm-20 0l5.1.05v-1.95l-5.05-.05-.05 1.95zm10 0l5.1.05v-1.95l-5.05-.05-.05 1.95zm-180 0l5.1.05v-1.95l-5.05-.05-.05 1.95zm-30 0l5.1.05v-1.95l-5.05-.05-.05 1.95zm10 0l5.1.05v-1.95l-5.05-.05-.05 1.95zm-20 0l5.1.05v-1.95l-5.05-.05-.05 1.95zm-30 0l5.1.05v-1.95l-5.05-.05-.05 1.95zm60 0l5.1.05v-1.95l-5.05-.05-.05 1.95zm-40 0l5.1.05v-1.95l-5.05-.05-.05 1.95zm120 0l5.1.05v-1.95l-5.05-.05-.05 1.95zm-130 0l5.1.05v-1.95l-5.05-.05-.05 1.95zm100 0l5.1.05v-1.95l-5.05-.05-.05 1.95zm10 0l5.1.05v-1.95l-5.05-.05-.05 1.95zm10 0l5.1.05v-1.95l-5.05-.05-.05 1.95zm-140 0l5.1.05v-1.95l-5.05-.05-.05 1.95zm110 0l5.1.05v-1.95l-5.05-.05-.05 1.95zm-20 0l5.1.05v-1.95l-5.05-.05-.05 1.95zm10 0l5.1.05v-1.95l-5.05-.05-.05 1.95z"/><path class="cls-3" d="M193.8 445.85h75v57h-75z"/><path class="cls-4" d="M193.8 377.85h120v57h-120z"/><path class="cls-5" d="M193.8 310.85h341v57h-341z"/><path class="cls-6" d="M206.35 84.21c7.1 0 11.84-4.51 11.84-13V50.79h-3.52v20.68c0 6.25-3.2 9.49-8.22 9.49s-8.32-3.43-8.32-9.63V50.79h-3.53v20.64c0 8.27 4.75 12.78 11.75 12.78zm27.45-3.29c-3.71 0-6.53-1.55-9.26-4.09l-2.21 2.68a16.15 16.15 0 0 0 11.42 4.65c5.88 0 10.2-3.71 10.2-9v-.09c0-4.37-2.44-7-9.12-9.54-6.2-2.26-7.66-3.9-7.66-6.77v-.09c0-2.82 2.44-5.12 6.2-5.12a11.8 11.8 0 0 1 7.9 3.2l2.12-2.75a14.28 14.28 0 0 0-9.87-3.71c-5.78 0-9.92 3.76-9.92 8.69v.09c0 4.65 2.68 7.1 9.49 9.63 6 2.12 7.29 3.85 7.29 6.58 0 3.24-2.63 5.64-6.58 5.64zm40.04-13.53v-.33c0-9.68-6.3-16.26-15.46-16.26h-9.31v32.9h9.31c9.17-.01 15.46-6.7 15.46-16.31zM252.6 80.45V54h5.69c7.19 0 11.89 5.26 11.89 13.07v.33c0 7.8-4.7 13-11.89 13zm23.5 8.84l18.28-42.68h-3.05L273 89.29h3.1zm18.1-21.86c0 10 6.06 16.73 14.19 16.73a14.08 14.08 0 0 0 10.43-4.51l-2.12-2.44c-2.35 2.26-4.75 3.67-8.13 3.67-6.06 0-10.71-5.5-10.71-13.58v-.2c0-7.94 4.65-13.49 10.71-13.49a11.09 11.09 0 0 1 7.9 3.43l2.16-2.68a13.7 13.7 0 0 0-10-4c-8.22 0-14.43 6.86-14.43 16.83zM327.61 75h14.8l3.2 8.65h3.76l-12.55-33.04h-3.48L320.8 83.69h3.62zM335 55.17l6.2 16.68h-12.41zm43.46 12.22v-.33c0-9.68-6.3-16.26-15.46-16.26h-9.3v32.9h9.3c9.17-.01 15.46-6.7 15.46-16.31zm-21.24 13.06V54h5.69c7.19 0 11.89 5.26 11.89 13.07v.33c0 7.8-4.7 13-11.89 13zm-243.95 56.92c-2.82 0-5.36-1.41-7.57-3.48l-2.11 2.63a14 14 0 0 0 9.63 4.09A10.34 10.34 0 0 0 124 129.85v-.14c0-6.44-4.56-9.92-10.15-9.92a12.65 12.65 0 0 0-5.31 1.17l.66-10.48h13.39v-3.28h-16.46l-.85 15.74 2.26 1.55a11.75 11.75 0 0 1 5.73-1.5c4.09 0 7.14 2.54 7.14 6.86v.15c0 4.31-2.96 7.37-7.14 7.37zm26.32 3.24c7.29 0 11.94-7 11.94-16.82v-.38c0-9.87-4.61-16.73-11.89-16.73s-11.94 7-11.94 16.83v.38c0 9.86 4.56 16.72 11.89 16.72zm-8.27-17.2c0-7.9 3.24-13.54 8.27-13.54s8.32 5.73 8.32 13.63v.38c0 7.9-3.24 13.54-8.27 13.54s-8.32-5.73-8.32-13.63zm24.91-7.75h4.23v4.79h-4.23zm0 19.59h4.23v4.84h-4.23zm13.44-24.48v29.32h3.48v-33.08h-2.64l-6.81 2.58.61 3.06 5.36-1.88zm30.5 29.84c6.3 0 10.9-5.5 10.9-12.64v-.28c0-7.14-4.56-12.55-10.86-12.55s-10.9 5.45-10.9 12.59v.33c.01 7.15 4.56 12.55 10.86 12.55zm-7.38-12.88c0-5.45 3.05-9.54 7.38-9.54s7.47 4.09 7.47 9.59v.22c0 5.4-3.1 9.54-7.42 9.54s-7.43-4.09-7.43-9.59zm22.75-12.12v24.49h3.38v-11.66c0-6.3 3.67-9.49 8.22-9.49h.19v-3.67c-4-.19-7 2.3-8.41 5.73v-5.4zm24.82 21.76v2.73h20v-3.3h-15.12l8.22-9.31c4.61-4.84 6.63-7.61 6.63-11.84v-.14c0-5.17-3.9-8.79-9.26-8.79-4.7 0-7.71 2.21-10.15 5.88l2.44 2.07c2.21-3.1 4.37-4.7 7.38-4.7a5.66 5.66 0 0 1 5.92 5.88c0 3.05-1.5 5.45-5.45 9.68zm47.23-13.54c-3.95 0-6.72 3.57-6.72 8.22v.23c0 4.56 2.73 8.13 6.67 8.13s6.72-3.57 6.72-8.22V132c0-4.6-2.72-8.17-6.67-8.17zm3.81 8.41c0 3.29-1.55 5.64-3.81 5.64s-3.85-2.3-3.85-5.69V132c0-3.24 1.55-5.64 3.81-5.64s3.85 2.35 3.85 5.69zm-13.44-9.21l-11.09 17.06h3l10.11-15.79 11.18-17.11h-3.01l-10.19 15.84zm-7.52-16.16c-3.95 0-6.72 3.57-6.72 8.22v.23c0 4.56 2.73 8.13 6.67 8.13s6.72-3.57 6.72-8.22V115c0-4.56-2.73-8.13-6.67-8.13zm3.81 8.41c0 3.29-1.55 5.64-3.81 5.64s-3.81-2.3-3.81-5.69V115c0-3.24 1.5-5.64 3.76-5.64s3.85 2.35 3.85 5.69zm54.65 21.57h-15.27v-29.66h-3.52v32.9h18.79v-3.24zm12.27-21.71c-5.73 0-10.1 5.22-10.1 12.69v.24c0 7.75 4.89 12.55 10.86 12.55a11.08 11.08 0 0 0 8.41-3.67l-1.93-2.16a8.62 8.62 0 0 1-6.34 2.82c-3.85 0-7.19-3-7.57-8.41h16.45v-1.41c.05-7.39-3.62-12.65-9.78-12.65zm-6.67 11.42c.33-5.12 3.05-8.46 6.67-8.46 4 0 6.2 3.81 6.44 8.46zm29.8 13.72l8.97-24.67h-3.57l-6.96 20.11-6.86-20.11h-3.66l9.02 24.67h3.06zm10.15-12.45v.24c0 7.75 4.89 12.55 10.86 12.55a11.08 11.08 0 0 0 8.41-3.67l-1.93-2.16a8.62 8.62 0 0 1-6.34 2.82c-3.85 0-7.19-3-7.57-8.41h16.45v-1.41c0-7.38-3.67-12.64-9.82-12.64-5.69-.01-10.06 5.21-10.06 12.68zm10.1-9.73c4 0 6.2 3.81 6.44 8.46h-13.11c.33-5.12 3.05-8.46 6.67-8.46zM402 128.44c0-6.3 3.67-9.49 8.22-9.49h.19v-3.67c-4-.19-7 2.3-8.41 5.73v-5.4h-3.38v24.49H402zm17.19 12.17a8.45 8.45 0 0 0 7.47-4.09v3.57H430v-15.74a9.09 9.09 0 0 0-2.35-6.63 9.33 9.33 0 0 0-6.86-2.44 16.86 16.86 0 0 0-7.71 2l1.08 2.77a13.35 13.35 0 0 1 6.25-1.65c3.95 0 6.25 2.12 6.25 6.06v1.46a20.13 20.13 0 0 0-6.3-1c-5.4 0-9 2.87-9 7.9v.18c-.02 4.84 3.74 7.61 7.83 7.61zm-4.46-7.94c0-3.1 2.16-5.12 6.06-5.12a17.28 17.28 0 0 1 5.92 1v3.05c0 3.57-3 6.25-6.77 6.2a4.9 4.9 0 0 1-5.22-5zm29.09 5.73c3.9 0 6.39-2.3 8.08-5v3.57c0 4.89-2.87 7.33-7.47 7.33a14.58 14.58 0 0 1-7.9-2.4l-1.36 2.73a17.34 17.34 0 0 0 9.3 2.63c3.48 0 6.25-.94 8.13-2.82s2.68-4.23 2.68-7.57v-21.26h-3.38V120c-1.64-2.58-4.14-4.84-8-4.84-5 0-9.68 4.18-9.68 11.56v.19c-.04 7.36 4.62 11.49 9.6 11.49zm-6.16-11.7c0-5.36 3.1-8.51 7-8.51s7.38 3.24 7.38 8.51v.14c0 5.22-3.62 8.51-7.38 8.51s-7-3.24-7-8.55zm32.95 13.91a11.08 11.08 0 0 0 8.41-3.67l-1.93-2.16a8.62 8.62 0 0 1-6.34 2.82c-3.85 0-7.19-3-7.57-8.41h16.45v-1.41c0-7.38-3.67-12.64-9.82-12.64-5.73 0-10.1 5.22-10.1 12.69v.24c.04 7.75 4.93 12.54 10.9 12.54zm-.75-22.51c4 0 6.2 3.81 6.44 8.46h-13.12c.33-5.12 3.06-8.46 6.68-8.46zM109.88 616.88a3.59 3.59 0 0 0-1-2.59 4.54 4.54 0 0 0-3.31-1.17h-4.3v12.6h1.35v-4.9h2.86l3.17 4.9h1.62l-3.39-5.17a3.59 3.59 0 0 0 3-3.67zm-4.54 2.68h-2.72v-5.24h2.86c1.89 0 3 .92 3 2.57.05 1.65-1.08 2.68-3.14 2.68zm10.12-3.43c-2.2 0-3.87 2-3.87 4.86v.09c0 3 1.87 4.81 4.16 4.81a4.25 4.25 0 0 0 3.22-1.4l-.74-.83a3.31 3.31 0 0 1-2.43 1.08c-1.48 0-2.75-1.15-2.9-3.22h6.3v-.54c.02-2.83-1.38-4.85-3.74-4.85zm-2.56 4.38c.13-2 1.17-3.24 2.56-3.24s2.38 1.46 2.47 3.24zm14.73-2.46a3.48 3.48 0 0 0-3-1.93c-1.91 0-3.75 1.67-3.75 4.79v.18c0 3.13 1.84 4.77 3.75 4.77a3.5 3.5 0 0 0 3-2v4.5h1.3v-12.05h-1.3zm.05 3c0 2.21-1.35 3.62-2.83 3.62s-2.68-1.35-2.68-3.64v-.14c0-2.3 1.19-3.62 2.68-3.62s2.83 1.4 2.83 3.62zm9.61.95a2.42 2.42 0 0 1-2.38 2.67c-1.37 0-2.16-.94-2.16-2.61v-5.78h-1.3v6.16c0 2.09 1.15 3.4 3.06 3.4a3 3 0 0 0 2.77-1.71v1.53h1.3v-9.38h-1.3zm4-9.15h1.44v1.53h-1.44zm.07 3.46h1.3v9.38h-1.3zm5.36 2.07v-2.07h-1.3v9.38h1.3v-4.46c0-2.41 1.4-3.64 3.15-3.64h.07v-1.4a3.31 3.31 0 0 0-3.22 2.19zm8.02-2.25c-2.2 0-3.87 2-3.87 4.86v.09c0 3 1.87 4.81 4.16 4.81a4.24 4.24 0 0 0 3.22-1.4l-.74-.83a3.3 3.3 0 0 1-2.43 1.08c-1.48 0-2.75-1.15-2.9-3.22h6.3v-.54c.02-2.83-1.39-4.85-3.74-4.85zm-2.56 4.38c.13-2 1.17-3.24 2.56-3.24s2.38 1.46 2.47 3.24zm14.72-2.46a3.48 3.48 0 0 0-3-1.93c-1.91 0-3.75 1.67-3.75 4.79v.18c0 3.13 1.84 4.77 3.75 4.77a3.5 3.5 0 0 0 3-2v1.8h1.3v-13h-1.3zm.05 3c0 2.21-1.35 3.62-2.83 3.62s-2.68-1.35-2.68-3.64v-.14c0-2.3 1.19-3.62 2.68-3.62s2.83 1.4 2.83 3.62zm17.97-4.92a3.26 3.26 0 0 0-2.88 1.71 2.71 2.71 0 0 0-2.59-1.71 2.94 2.94 0 0 0-2.63 1.67v-1.49h-1.3v9.38h1.3V620c0-1.58 1-2.68 2.21-2.68s2 .92 2 2.59v5.8h1.3V620c0-1.69 1-2.67 2.21-2.67s2 .9 2 2.61v5.78h1.3v-6.12c.07-2.21-1.1-3.47-2.92-3.47zm10.82 8.19v1.37H197v-6a3.48 3.48 0 0 0-.9-2.54 3.57 3.57 0 0 0-2.63-.94 6.46 6.46 0 0 0-3 .76L191 618a5.12 5.12 0 0 1 2.39-.63 2.14 2.14 0 0 1 2.39 2.32v.56a7.71 7.71 0 0 0-2.41-.38c-2.07 0-3.46 1.1-3.46 3v.13a2.87 2.87 0 0 0 3 2.92 3.24 3.24 0 0 0 2.83-1.6zm-4.57-1.42v-.05c0-1.19.83-2 2.32-2a6.62 6.62 0 0 1 2.27.38v1.17a2.44 2.44 0 0 1-2.59 2.38 1.88 1.88 0 0 1-2-1.88zm9.66-1.68c0-2.41 1.4-3.64 3.15-3.64h.07v-1.4a3.31 3.31 0 0 0-3.22 2.2v-2.07h-1.3v9.38h1.3zm12.28 3.23v-8.14h-1.3V618a3.56 3.56 0 0 0-3.08-1.85c-1.91 0-3.71 1.6-3.71 4.43v.07c0 2.83 1.78 4.41 3.69 4.41a3.57 3.57 0 0 0 3.1-1.93v1.37a2.57 2.57 0 0 1-2.86 2.81 5.58 5.58 0 0 1-3-.92l-.52 1a6.64 6.64 0 0 0 3.57 1 4.25 4.25 0 0 0 3.11-1.08 3.91 3.91 0 0 0 1-2.86zm-1.26-3.83a3 3 0 0 1-2.83 3.26c-1.46 0-2.67-1.24-2.67-3.28 0-2.05 1.19-3.26 2.67-3.26a3 3 0 0 1 2.83 3.26zm3.96-7.77h1.44v1.53h-1.44zm.07 3.46h1.3v9.38h-1.3zm11.2 9.38v-6.14c0-2.11-1.15-3.42-3.06-3.42a3 3 0 0 0-2.77 1.71v-1.53h-1.3v9.38h1.3V620a2.44 2.44 0 0 1 2.38-2.68c1.37 0 2.16.94 2.16 2.61v5.78zm7.23-12.84h1.44v1.53h-1.44zm.07 3.46h1.3v9.38h-1.3zm9.62 6.84c0-1.42-1.08-2.07-2.63-2.75-1.28-.54-2.09-.94-2.09-1.73 0-.74.63-1.31 1.62-1.31a4.1 4.1 0 0 1 2.36.88l.63-1a5.12 5.12 0 0 0-3-1 2.64 2.64 0 0 0-2.92 2.56c0 1.46 1.19 2.05 2.68 2.7 1.26.52 2 1 2 1.78 0 .88-.72 1.46-1.75 1.46a4.28 4.28 0 0 1-2.74-1.13l-.68 1a5.24 5.24 0 0 0 3.38 1.31 2.77 2.77 0 0 0 3.14-2.77zm11 2.36v-1.12a2.77 2.77 0 0 1-1.1.25 1.19 1.19 0 0 1-1.35-1.35v-5.83H255v-1.15h-2.45v-2.74h-1.3v2.74h-1.15v1.15h1.13v6a2.1 2.1 0 0 0 2.34 2.32 3.18 3.18 0 0 0 1.43-.27zm7.9-5.6v5.78h1.3v-6.14c0-2.11-1.15-3.42-3.06-3.42a3 3 0 0 0-2.77 1.71v-5.15h-1.3v13h1.3V620a2.44 2.44 0 0 1 2.38-2.68c1.36-.02 2.15.92 2.15 2.59zm7.2-3.78c-2.2 0-3.87 2-3.87 4.86v.09c0 3 1.87 4.81 4.16 4.81a4.25 4.25 0 0 0 3.22-1.4l-.74-.83a3.31 3.31 0 0 1-2.43 1.08c-1.48 0-2.75-1.15-2.9-3.22h6.3v-.54c.02-2.83-1.38-4.85-3.74-4.85zm-2.56 4.38c.13-2 1.17-3.24 2.56-3.24s2.38 1.46 2.47 3.24zm22.46-4.38a3.26 3.26 0 0 0-2.88 1.71 2.71 2.71 0 0 0-2.59-1.71 2.94 2.94 0 0 0-2.63 1.67v-1.49h-1.3v9.38h1.3V620c0-1.58 1-2.68 2.21-2.68s2 .92 2 2.59v5.8h1.3V620c0-1.69 1-2.67 2.21-2.67s2 .9 2 2.61v5.78H293v-6.12c0-2.21-1.17-3.47-3-3.47zm5.67.18h1.3v9.38h-1.3zm-.07-3.46h1.44v1.53h-1.44zm8.21 3.28a3 3 0 0 0-2.77 1.71v-1.53h-1.3v9.38H301V620a2.44 2.44 0 0 1 2.38-2.68c1.37 0 2.16.94 2.16 2.61v5.78h1.3v-6.14c.03-2.13-1.12-3.44-3.03-3.44zm5.71.18h1.3v9.38h-1.3zm-.08-3.46h1.44v1.53h-1.44zm13.56 3.28a3.26 3.26 0 0 0-2.88 1.71 2.71 2.71 0 0 0-2.59-1.71 2.94 2.94 0 0 0-2.63 1.67v-1.49h-1.3v9.38h1.3V620c0-1.58 1-2.68 2.21-2.68s2 .92 2 2.59v5.8h1.3V620c0-1.69 1-2.67 2.21-2.67s2 .9 2 2.61v5.78H326v-6.12c0-2.21-1.2-3.47-3-3.47zm11.25 5.87a2.42 2.42 0 0 1-2.38 2.67c-1.37 0-2.16-.94-2.16-2.61v-5.78h-1.3v6.16c0 2.09 1.15 3.4 3.06 3.4a3 3 0 0 0 2.77-1.71v1.53h1.3v-9.38h-1.3zm15.05-2.09v5.78h1.3v-6.12c0-2.18-1.17-3.44-3-3.44a3.26 3.26 0 0 0-2.88 1.71 2.71 2.71 0 0 0-2.59-1.71 2.94 2.94 0 0 0-2.63 1.67v-1.49h-1.3v9.38h1.3V620c0-1.58 1-2.68 2.21-2.68s2 .92 2 2.59v5.8h1.3V620c0-1.69 1-2.67 2.21-2.67s2.08.87 2.08 2.58zm11.53-3.73a6.46 6.46 0 0 0-3 .76l.41 1.06a5.12 5.12 0 0 1 2.39-.63 2.14 2.14 0 0 1 2.39 2.32v.56a7.71 7.71 0 0 0-2.41-.38c-2.07 0-3.46 1.1-3.46 3v.13a2.87 2.87 0 0 0 3 2.92 3.24 3.24 0 0 0 2.86-1.57v1.37h1.28v-6a3.48 3.48 0 0 0-.9-2.54 3.57 3.57 0 0 0-2.56-1zm2.27 6.25a2.44 2.44 0 0 1-2.59 2.38 1.88 1.88 0 0 1-2-1.91v-.05c0-1.19.83-2 2.32-2a6.62 6.62 0 0 1 2.27.38zm10.44 2.05l-.76-.86a3 3 0 0 1-2.2 1.08c-1.58 0-2.88-1.42-2.88-3.64V621c0-2.18 1.26-3.65 2.83-3.65a3 3 0 0 1 2.2 1.06l.77-1a4 4 0 0 0-3-1.28c-2.34 0-4.18 2-4.18 4.84v.13c0 2.85 1.78 4.79 4.14 4.79a3.86 3.86 0 0 0 3.08-1.41zm8.36 0l-.76-.86a3 3 0 0 1-2.2 1.08c-1.58 0-2.88-1.42-2.88-3.64V621c0-2.18 1.26-3.65 2.83-3.65a3 3 0 0 1 2.2 1.06l.77-1a4 4 0 0 0-3-1.28c-2.34 0-4.18 2-4.18 4.84v.13c0 2.85 1.78 4.79 4.14 4.79a3.86 3.86 0 0 0 3.08-1.41zm5.36-8.35c-2.41 0-4.18 2.09-4.18 4.83v.13c0 2.74 1.75 4.81 4.16 4.81s4.18-2.11 4.18-4.84v-.11c0-2.75-1.75-4.82-4.16-4.82zm2.84 4.93c0 2.07-1.19 3.65-2.84 3.65s-2.84-1.57-2.84-3.67V621c0-2.09 1.17-3.66 2.83-3.66s2.86 1.57 2.86 3.67zm9.18.94a2.42 2.42 0 0 1-2.38 2.67c-1.37 0-2.16-.94-2.16-2.61v-5.78h-1.3v6.16c0 2.09 1.15 3.4 3.06 3.4a3 3 0 0 0 2.77-1.71v1.53h1.3v-9.38h-1.3zm8.03-5.87a3 3 0 0 0-2.77 1.71v-1.53h-1.3v9.38h1.3V620a2.44 2.44 0 0 1 2.38-2.68c1.37 0 2.16.94 2.16 2.61v5.78h1.3v-6.14c-.01-2.13-1.16-3.44-3.07-3.44zm7.27-2.56h-1.3v2.74h-1.13v1.15h1.13v6a2.1 2.1 0 0 0 2.34 2.32 3.18 3.18 0 0 0 1.4-.32v-1.12a2.77 2.77 0 0 1-1.1.25 1.19 1.19 0 0 1-1.35-1.35v-5.83H417v-1.15h-2.45zm13.54 2.56a3.5 3.5 0 0 0-3 2v-5.42h-1.3v13h1.3v-1.75a3.48 3.48 0 0 0 3 1.93c1.91 0 3.75-1.67 3.75-4.79v-.18c0-3.14-1.87-4.79-3.75-4.79zm2.41 5c0 2.3-1.19 3.62-2.66 3.62s-2.84-1.4-2.84-3.6v-.18c0-2.2 1.37-3.62 2.84-3.62s2.66 1.35 2.66 3.64zm6.54-4.95a6.46 6.46 0 0 0-3 .76l.41 1.06a5.12 5.12 0 0 1 2.39-.63 2.14 2.14 0 0 1 2.39 2.32v.56a7.71 7.71 0 0 0-2.41-.38c-2.07 0-3.46 1.1-3.46 3v.13a2.87 2.87 0 0 0 3 2.92 3.24 3.24 0 0 0 2.86-1.57v1.37h1.28v-6a3.48 3.48 0 0 0-.9-2.54 3.57 3.57 0 0 0-2.56-1zm2.27 6.25a2.44 2.44 0 0 1-2.59 2.38 1.88 1.88 0 0 1-2-1.91v-.05c0-1.19.83-2 2.32-2a6.62 6.62 0 0 1 2.27.38zm3.88-9.74h1.3v13h-1.3zm7.08 3.49a6.46 6.46 0 0 0-3 .76l.41 1.06a5.12 5.12 0 0 1 2.39-.63 2.14 2.14 0 0 1 2.39 2.32v.56a7.71 7.71 0 0 0-2.41-.38c-2.07 0-3.46 1.1-3.46 3v.13a2.87 2.87 0 0 0 3 2.92 3.24 3.24 0 0 0 2.86-1.57v1.37h1.28v-6a3.48 3.48 0 0 0-.9-2.54 3.57 3.57 0 0 0-2.56-1zm2.27 6.25a2.44 2.44 0 0 1-2.59 2.38 1.88 1.88 0 0 1-2-1.91v-.05c0-1.19.83-2 2.32-2a6.62 6.62 0 0 1 2.27.38zm7.84-6.3a3 3 0 0 0-2.77 1.71v-1.53h-1.3v9.38h1.3V620a2.44 2.44 0 0 1 2.36-2.7c1.37 0 2.16.94 2.16 2.61v5.78h1.3v-6.14c.01-2.11-1.14-3.42-3.05-3.42zm9.31 8.57c-1.58 0-2.88-1.42-2.88-3.64V621c0-2.18 1.26-3.65 2.83-3.65a3 3 0 0 1 2.2 1.06l.77-1a4 4 0 0 0-3-1.28c-2.34 0-4.18 2-4.18 4.84v.13c0 2.85 1.78 4.79 4.14 4.79a3.86 3.86 0 0 0 3-1.4l-.76-.86a3 3 0 0 1-2.12 1.07zm8.01-8.57c-2.2 0-3.87 2-3.87 4.86v.09c0 3 1.87 4.81 4.16 4.81a4.24 4.24 0 0 0 3.22-1.4l-.74-.83a3.3 3.3 0 0 1-2.43 1.08c-1.48 0-2.75-1.15-2.9-3.22h6.3v-.54c.02-2.83-1.38-4.85-3.74-4.85zm-2.56 4.38c.13-2 1.17-3.24 2.56-3.24s2.38 1.46 2.47 3.24zm-279.72 20.62a3 3 0 0 0-2.77 1.71v-1.53h-1.3v9.38h1.3V645a2.44 2.44 0 0 1 2.38-2.68c1.37 0 2.16.94 2.16 2.61v5.78h1.3v-6.14c-.01-2.13-1.16-3.44-3.07-3.44zm8.96 0c-2.2 0-3.87 2-3.87 4.86v.09c0 3 1.87 4.81 4.16 4.81a4.25 4.25 0 0 0 3.22-1.4l-.74-.83a3.31 3.31 0 0 1-2.43 1.08c-1.48 0-2.75-1.15-2.9-3.22h6.3v-.54c.03-2.83-1.38-4.85-3.74-4.85zm-2.56 4.38c.13-2 1.17-3.24 2.56-3.24s2.38 1.46 2.47 3.24zm11.78-4.38c-2.2 0-3.87 2-3.87 4.86v.09c0 3 1.87 4.81 4.16 4.81a4.24 4.24 0 0 0 3.22-1.4l-.74-.83a3.3 3.3 0 0 1-2.43 1.08c-1.48 0-2.75-1.15-2.9-3.22h6.3v-.54c.02-2.83-1.37-4.85-3.74-4.85zm-2.56 4.38c.13-2 1.17-3.24 2.56-3.24s2.38 1.46 2.47 3.24zm14.73-2.46a3.48 3.48 0 0 0-3-1.93c-1.91 0-3.75 1.67-3.75 4.79v.18c0 3.13 1.84 4.77 3.75 4.77a3.5 3.5 0 0 0 3-2v1.8h1.3v-13h-1.3zm.05 3c0 2.21-1.35 3.62-2.83 3.62s-2.68-1.35-2.68-3.64v-.14c0-2.3 1.19-3.62 2.68-3.62s2.83 1.4 2.83 3.62zm7.27-4.92c-2.2 0-3.87 2-3.87 4.86v.09c0 3 1.87 4.81 4.16 4.81a4.24 4.24 0 0 0 3.22-1.4l-.74-.83a3.3 3.3 0 0 1-2.43 1.08c-1.48 0-2.75-1.15-2.9-3.22h6.3v-.54c.03-2.83-1.38-4.85-3.74-4.85zm-2.56 4.38c.13-2 1.17-3.24 2.56-3.24s2.38 1.46 2.47 3.24zm14.73-2.46a3.48 3.48 0 0 0-3-1.93c-1.91 0-3.75 1.67-3.75 4.79v.18c0 3.13 1.84 4.77 3.75 4.77a3.5 3.5 0 0 0 3-2v1.8h1.3v-13h-1.3zm.05 3c0 2.21-1.35 3.62-2.83 3.62s-2.68-1.35-2.68-3.64v-.14c0-2.3 1.19-3.62 2.68-3.62s2.83 1.4 2.83 3.62zm10.28-7.48h-1.3v2.74h-1.13v1.15h1.13v6a2.1 2.1 0 0 0 2.34 2.32 3.18 3.18 0 0 0 1.4-.32v-1.12a2.78 2.78 0 0 1-1.1.25 1.19 1.19 0 0 1-1.35-1.35v-5.83h2.45v-1.15h-2.45zm7.98 2.56c-2.41 0-4.18 2.09-4.18 4.83v.13c0 2.74 1.75 4.81 4.16 4.81s4.18-2.11 4.18-4.84v-.11c0-2.75-1.76-4.82-4.16-4.82zm2.84 4.93c0 2.07-1.19 3.65-2.84 3.65s-2.85-1.57-2.85-3.67V646c0-2.09 1.17-3.66 2.83-3.66s2.86 1.57 2.86 3.67zm12.21-4.93a3 3 0 0 0-2.77 1.71v-5.15h-1.3v13h1.3V645a2.44 2.44 0 0 1 2.38-2.68c1.37 0 2.16.94 2.16 2.61v5.78h1.3v-6.14c-.01-2.13-1.16-3.44-3.07-3.44zm9.27 0c-2.41 0-4.18 2.09-4.18 4.83v.13c0 2.74 1.75 4.81 4.16 4.81s4.18-2.11 4.18-4.84v-.11c0-2.75-1.75-4.82-4.16-4.82zm2.84 4.93c0 2.07-1.19 3.65-2.84 3.65s-2.85-1.57-2.85-3.67V646c0-2.09 1.17-3.66 2.83-3.66s2.86 1.57 2.86 3.67zm3.58-8.37h1.3v13h-1.3zm10.39 5.36a3.48 3.48 0 0 0-3-1.93c-1.91 0-3.75 1.67-3.75 4.79v.18c0 3.13 1.84 4.77 3.75 4.77a3.5 3.5 0 0 0 3-2v1.8H306v-13h-1.3zm.05 3c0 2.21-1.35 3.62-2.83 3.62s-2.68-1.35-2.68-3.64v-.14c0-2.3 1.19-3.62 2.68-3.62s2.83 1.4 2.83 3.62zm11.58-4.87a6.46 6.46 0 0 0-3 .76l.41 1.06a5.12 5.12 0 0 1 2.39-.63 2.14 2.14 0 0 1 2.39 2.32v.56a7.71 7.71 0 0 0-2.41-.38c-2.07 0-3.46 1.1-3.46 3v.13a2.87 2.87 0 0 0 3 2.92 3.24 3.24 0 0 0 2.86-1.57v1.37h1.28v-6a3.48 3.48 0 0 0-.9-2.54 3.57 3.57 0 0 0-2.56-1zm2.27 6.25a2.44 2.44 0 0 1-2.59 2.38 1.88 1.88 0 0 1-2-1.91v-.05c0-1.19.83-2 2.32-2a6.62 6.62 0 0 1 2.27.38zm12.78-6.3a3.5 3.5 0 0 0-3 2v-1.8h-1.3v12.08h1.3v-4.45a3.48 3.48 0 0 0 3 1.93c1.91 0 3.75-1.67 3.75-4.79v-.18c-.01-3.14-1.85-4.79-3.75-4.79zm2.41 5c0 2.3-1.19 3.62-2.66 3.62s-2.84-1.4-2.84-3.6v-.18c0-2.2 1.37-3.62 2.84-3.62s2.66 1.35 2.66 3.64zm7.18-5c-2.41 0-4.18 2.09-4.18 4.83v.13c0 2.74 1.75 4.81 4.16 4.81s4.18-2.11 4.18-4.84v-.11c.02-2.75-1.73-4.82-4.16-4.82zm2.84 4.93c0 2.07-1.19 3.65-2.84 3.65s-2.84-1.57-2.84-3.67V646c0-2.09 1.17-3.66 2.83-3.66s2.86 1.57 2.86 3.67zm6.45-.7c-1.28-.54-2.09-.94-2.09-1.73 0-.74.63-1.31 1.62-1.31a4.1 4.1 0 0 1 2.36.88l.63-1a5.12 5.12 0 0 0-3-1 2.64 2.64 0 0 0-2.92 2.56c0 1.46 1.19 2.05 2.68 2.7 1.26.52 2 1 2 1.78 0 .88-.72 1.46-1.75 1.46a4.28 4.28 0 0 1-2.74-1.13l-.68 1a5.24 5.24 0 0 0 3.38 1.31 2.77 2.77 0 0 0 3-2.7c.14-1.49-.94-2.18-2.49-2.82zm4.86-4.05h1.3v9.38h-1.3zm-.08-3.46h1.44v1.53h-1.44zm5.86.72h-1.3v2.74h-1.13v1.15h1.13v6a2.1 2.1 0 0 0 2.34 2.32 3.18 3.18 0 0 0 1.4-.32v-1.12a2.77 2.77 0 0 1-1.1.25 1.19 1.19 0 0 1-1.35-1.35v-5.83h2.45v-1.15h-2.45zm4.64 2.74h1.3v9.38h-1.3zm-.07-3.46h1.44v1.53h-1.44zm7.81 3.28c-2.41 0-4.18 2.09-4.18 4.83v.13c0 2.74 1.75 4.81 4.16 4.81s4.18-2.11 4.18-4.84v-.11c0-2.75-1.75-4.82-4.16-4.82zm2.84 4.93c0 2.07-1.19 3.65-2.84 3.65s-2.85-1.57-2.85-3.67V646c0-2.09 1.17-3.66 2.83-3.66s2.86 1.57 2.86 3.67zm7.55-4.93a3 3 0 0 0-2.77 1.71v-1.53h-1.3v9.38h1.3V645a2.44 2.44 0 0 1 2.38-2.68c1.37 0 2.16.94 2.16 2.61v5.78h1.3v-6.14c-.01-2.13-1.16-3.44-3.07-3.44zm5.45 7.7h1.62v1.85h-1.62zM79.25 171.91h1.35v12.6h-1.35zm5.6 6.9a2.44 2.44 0 0 1 2.38-2.68c1.37 0 2.16.94 2.16 2.61v5.78h1.3v-6.14c0-2.11-1.15-3.42-3.06-3.42a3 3 0 0 0-2.77 1.71v-1.53h-1.3v9.38h1.3zm15.79 5.85a3.18 3.18 0 0 0 1.4-.32v-1.12a2.79 2.79 0 0 1-1.1.25 1.19 1.19 0 0 1-1.35-1.35v-5.83H102v-1.15h-2.41v-2.74h-1.3v2.74h-1.13v1.15h1.13v6a2.1 2.1 0 0 0 2.35 2.37zm9.36-5.92v5.78h1.3v-6.14c0-2.11-1.15-3.42-3.06-3.42a3 3 0 0 0-2.77 1.71v-5.15h-1.3v13h1.3v-5.71a2.44 2.44 0 0 1 2.38-2.68c1.32-.01 2.15.93 2.15 2.61zm3.9-3.61h1.3v9.38h-1.3zm-.07-3.45h1.44v1.53h-1.44zm6.71 11.86a4.28 4.28 0 0 1-2.74-1.13l-.68 1a5.24 5.24 0 0 0 3.38 1.31 2.77 2.77 0 0 0 3-2.7c0-1.42-1.08-2.07-2.63-2.75-1.28-.54-2.09-.94-2.09-1.73 0-.74.63-1.31 1.62-1.31a4.1 4.1 0 0 1 2.36.88l.63-1a5.12 5.12 0 0 0-3-1 2.64 2.64 0 0 0-2.92 2.56c0 1.46 1.19 2.05 2.68 2.7 1.26.52 2 1 2 1.78.14.85-.58 1.39-1.61 1.39zm16.67-.23l-.74-.83a3.31 3.31 0 0 1-2.43 1.08c-1.48 0-2.75-1.15-2.9-3.22h6.3v-.54c0-2.83-1.4-4.84-3.76-4.84-2.2 0-3.87 2-3.87 4.86v.09c0 3 1.87 4.81 4.16 4.81a4.25 4.25 0 0 0 3.24-1.41zm-3.51-7.22c1.53 0 2.38 1.46 2.47 3.24h-5c.1-1.96 1.14-3.24 2.53-3.24zm6.08 8.42l2.44-3.87 2.43 3.87h1.45l-3.13-4.82 2.99-4.56h-1.4l-2.33 3.66-2.28-3.66h-1.46l2.97 4.59-3.1 4.79h1.42zm8.07-8.75l.41 1.06a5.12 5.12 0 0 1 2.39-.63 2.14 2.14 0 0 1 2.39 2.32v.56a7.71 7.71 0 0 0-2.41-.38c-2.07 0-3.46 1.1-3.46 3v.07a2.87 2.87 0 0 0 3 2.92 3.24 3.24 0 0 0 2.86-1.57v1.37h1.28v-6a3.48 3.48 0 0 0-.9-2.54 3.57 3.57 0 0 0-2.63-.94 6.46 6.46 0 0 0-2.93.76zm5.22 5.49a2.44 2.44 0 0 1-2.59 2.38 1.88 1.88 0 0 1-2-1.91v-.05c0-1.19.83-2 2.32-2a6.62 6.62 0 0 1 2.27.38zm5.07-4.62v-1.49h-1.3v9.38h1.3v-5.71c0-1.58 1-2.68 2.21-2.68s2 .92 2 2.59v5.8h1.3v-5.73c0-1.69 1-2.67 2.21-2.67s2 .9 2 2.61v5.78h1.3v-6.12c0-2.18-1.17-3.44-3-3.44a3.26 3.26 0 0 0-2.88 1.71 2.71 2.71 0 0 0-2.59-1.71 2.94 2.94 0 0 0-2.55 1.68zm14.96 6.14a3.47 3.47 0 0 0 3 1.93c1.91 0 3.75-1.67 3.75-4.79v-.18c0-3.12-1.84-4.77-3.75-4.77a3.5 3.5 0 0 0-3 2v-1.8h-1.3v12.08h1.3zm-.05-3c0-2.2 1.37-3.62 2.84-3.62s2.66 1.35 2.66 3.64v.14c0 2.3-1.19 3.62-2.66 3.62s-2.84-1.4-2.84-3.6zm9.14-8.26h1.3v13h-1.3zm7.72 13.2a4.25 4.25 0 0 0 3.22-1.4l-.74-.83a3.31 3.31 0 0 1-2.43 1.08c-1.48 0-2.75-1.15-2.9-3.22h6.3v-.54c0-2.83-1.4-4.84-3.76-4.84-2.2 0-3.87 2-3.87 4.86v.09c.03 2.97 1.9 4.8 4.18 4.8zm-.29-8.62c1.53 0 2.38 1.46 2.47 3.24h-5c.11-1.96 1.15-3.24 2.54-3.24zm5.03 9.99l.22.61a2.21 2.21 0 0 0 1.91-2.45v-1.58h-1.62v1.85h.67c.04.76-.3 1.25-1.18 1.57zm9.34-14.4h1.44v1.53h-1.44zm.07 3.45h1.3v9.38h-1.3zm5.83 9.38v-8.23h2.43v-1.13h-2.45v-.79c0-1.19.49-1.76 1.42-1.76a3.74 3.74 0 0 1 1.06.18v-1.15a4.11 4.11 0 0 0-1.24-.18 2.47 2.47 0 0 0-1.82.67 3.07 3.07 0 0 0-.72 2.18v.87h-1.15v1.13h1.15v8.23zm9.83 1.61a2.5 2.5 0 0 1-1.22-.34l-.4 1.08a3.53 3.53 0 0 0 1.69.43c1.26 0 2.07-.67 2.74-2.61l3.33-9.54h-1.39l-2.47 7.72-2.81-7.72h-1.4l3.6 9.38c-.52 1.2-.97 1.6-1.67 1.6zM231 175c-2.41 0-4.18 2.09-4.18 4.83v.13c0 2.74 1.75 4.81 4.16 4.81s4.18-2.11 4.18-4.84v-.11c-.05-2.82-1.79-4.82-4.16-4.82zm2.84 4.93c0 2.07-1.19 3.65-2.84 3.65s-2.84-1.57-2.84-3.67v-.09c0-2.09 1.17-3.66 2.83-3.66s2.86 1.57 2.86 3.67zm6.37 4.76A3 3 0 0 0 243 183v1.53h1.3v-9.38H243v5.73a2.42 2.42 0 0 1-2.38 2.67c-1.37 0-2.16-.94-2.16-2.61v-5.78h-1.3v6.16c-.02 2.06 1.14 3.37 3.05 3.37zm11.39-9.56v12.08h1.3v-4.45a3.48 3.48 0 0 0 3 1.93c1.91 0 3.75-1.67 3.75-4.79v-.18c0-3.12-1.84-4.77-3.75-4.77a3.5 3.5 0 0 0-3 2v-1.8zm4.09 1c1.44 0 2.66 1.35 2.66 3.64v.14c0 2.3-1.19 3.62-2.66 3.62s-2.84-1.4-2.84-3.6v-.18c-.01-2.2 1.36-3.63 2.84-3.63zm6.29-4.62h1.3v13h-1.3zm10.61 13v-6a3.48 3.48 0 0 0-.9-2.54 3.57 3.57 0 0 0-2.63-.94 6.46 6.46 0 0 0-3 .76l.41 1.06a5.12 5.12 0 0 1 2.39-.63 2.14 2.14 0 0 1 2.39 2.32v.56a7.71 7.71 0 0 0-2.41-.38c-2.07 0-3.46 1.1-3.46 3v.07a2.87 2.87 0 0 0 3 2.92 3.24 3.24 0 0 0 2.86-1.57v1.37zm-3.85-.88a1.88 1.88 0 0 1-2-1.91v-.05c0-1.19.83-2 2.32-2a6.62 6.62 0 0 1 2.27.38v1.17a2.44 2.44 0 0 1-2.59 2.41zm13.03-.32l-.76-.86a3 3 0 0 1-2.2 1.08c-1.58 0-2.88-1.42-2.88-3.64v-.09c0-2.18 1.26-3.65 2.83-3.65a3 3 0 0 1 2.2 1.06l.77-1a4 4 0 0 0-3-1.28c-2.34 0-4.18 2-4.18 4.84v.13c0 2.85 1.78 4.79 4.14 4.79a3.86 3.86 0 0 0 3.08-1.38zm8.57 0l-.74-.83a3.31 3.31 0 0 1-2.43 1.08c-1.48 0-2.75-1.15-2.9-3.22h6.3v-.54c0-2.83-1.4-4.84-3.76-4.84-2.2 0-3.87 2-3.87 4.86v.09c0 3 1.87 4.81 4.16 4.81a4.25 4.25 0 0 0 3.24-1.41zm-3.51-7.22c1.53 0 2.38 1.46 2.47 3.24h-5c.09-1.96 1.14-3.24 2.52-3.24zm17.04 2.39a3.48 3.48 0 0 0-.9-2.54 3.57 3.57 0 0 0-2.63-.94 6.46 6.46 0 0 0-3 .76l.41 1.06a5.12 5.12 0 0 1 2.39-.63 2.14 2.14 0 0 1 2.39 2.32v.56a7.71 7.71 0 0 0-2.41-.38c-2.07 0-3.46 1.1-3.46 3v.07a2.87 2.87 0 0 0 3 2.92 3.24 3.24 0 0 0 2.86-1.57v1.37h1.28zm-1.26 2.77a2.44 2.44 0 0 1-2.59 2.38 1.88 1.88 0 0 1-2-1.91v-.05c0-1.19.83-2 2.32-2a6.62 6.62 0 0 1 2.27.38zm11.2 3.26v-12.67h-1.01l-2.61.99.23 1.17 2.05-.72v11.23h1.34zm11.7-6.24v-.14c0-3.78-1.76-6.41-4.55-6.41s-4.57 2.67-4.57 6.45v.14c0 3.78 1.75 6.41 4.55 6.41s4.57-2.72 4.57-6.45zm-4.51 5.22c-1.93 0-3.19-2.2-3.19-5.22v-.14c0-3 1.24-5.19 3.17-5.19s3.19 2.2 3.19 5.22v.14c-.05 3.03-1.29 5.19-3.17 5.19zm11 1.22c2.79 0 4.57-2.67 4.57-6.45v-.14c0-3.78-1.76-6.41-4.55-6.41s-4.57 2.67-4.57 6.45v.14c0 3.78 1.75 6.41 4.55 6.41zm-3.17-6.59c0-3 1.24-5.19 3.17-5.19s3.19 2.2 3.19 5.22v.14c0 3-1.24 5.19-3.17 5.19s-3.19-2.2-3.19-5.22zm9.11 7.96l.22.61a2.21 2.21 0 0 0 1.91-2.45v-1.58h-1.62v1.85h.67c.05.76-.3 1.25-1.18 1.57zm8.57-14.37c-2.79 0-4.57 2.67-4.57 6.45v.14c0 3.78 1.75 6.41 4.55 6.41s4.57-2.67 4.57-6.45v-.14c.01-3.78-1.76-6.41-4.55-6.41zm3.17 6.59c0 3-1.24 5.19-3.17 5.19s-3.19-2.2-3.19-5.22v-.14c0-3 1.24-5.19 3.17-5.19s3.19 2.2 3.19 5.22zm12.46-.18c0-3.78-1.76-6.41-4.55-6.41s-4.57 2.67-4.57 6.45v.14c0 3.78 1.75 6.41 4.55 6.41s4.57-2.67 4.57-6.45zm-1.39.18c0 3-1.24 5.19-3.17 5.19s-3.19-2.2-3.19-5.22v-.14c0-3 1.24-5.19 3.17-5.19s3.19 2.2 3.19 5.22zm7.88 6.41c2.79 0 4.57-2.67 4.57-6.45v-.14c0-3.78-1.76-6.41-4.55-6.41s-4.57 2.67-4.57 6.45v.14c0 3.78 1.74 6.41 4.55 6.41zm-3.17-6.59c0-3 1.24-5.19 3.17-5.19s3.19 2.2 3.19 5.22v.14c0 3-1.24 5.19-3.17 5.19s-3.19-2.2-3.19-5.22zm23.78 1.62v-7.83h-1.35v7.92c0 2.39-1.22 3.64-3.15 3.64s-3.19-1.31-3.19-3.69v-7.87h-1.35v7.9c0 3.17 1.82 4.9 4.5 4.9s4.54-1.71 4.54-4.97zm2.52-4.68c0 1.78 1 2.72 3.64 3.69 2.29.81 2.79 1.48 2.79 2.52a2.25 2.25 0 0 1-2.52 2.12 5 5 0 0 1-3.55-1.57l-.85 1a6.18 6.18 0 0 0 4.38 1.78c2.25 0 3.91-1.42 3.91-3.44 0-1.67-.94-2.7-3.49-3.66-2.38-.86-2.94-1.49-2.94-2.59a2.12 2.12 0 0 1 2.38-2 4.52 4.52 0 0 1 3 1.22l.81-1a5.47 5.47 0 0 0-3.78-1.42c-2.19.02-3.78 1.46-3.78 3.35zm19.7 3.21v-.13c0-3.71-2.41-6.23-5.92-6.23H402v12.6h3.56c3.44 0 5.9-2.51 5.9-6.24zm-8.14 5v-10.12h2.18c2.75 0 4.56 2 4.56 5v.13c0 3-1.8 5-4.56 5zm8.26 3.39h1.19l7-16.35h-1.17l-7.02 16.35zm14-1.97a5.39 5.39 0 0 0 4-1.73l-.81-.94a4.27 4.27 0 0 1-3.11 1.4c-2.32 0-4.11-2.11-4.11-5.2v-.07c0-3 1.78-5.17 4.11-5.17a4.25 4.25 0 0 1 3 1.31l.83-1a5.25 5.25 0 0 0-3.83-1.55c-3.15 0-5.53 2.63-5.53 6.45v.11c.02 3.82 2.34 6.39 5.45 6.39zm14.71-.18h1.44l-4.81-12.68h-1.33l-4.81 12.68h1.39l1.22-3.31h5.67zm-6.44-4.51l2.39-6.39 2.38 6.39zm13.55-8.09h-3.56v12.6h3.56c3.51 0 5.92-2.56 5.92-6.25v-.13c0-3.7-2.41-6.22-5.92-6.22zm4.52 6.37c0 3-1.8 5-4.55 5h-2.18v-10.13h2.18c2.75 0 4.55 2 4.55 5zm8.83 4.06a2.1 2.1 0 0 0 2.34 2.32 3.18 3.18 0 0 0 1.4-.32v-1.12a2.79 2.79 0 0 1-1.1.25 1.19 1.19 0 0 1-1.35-1.35v-5.83h2.45v-1.15h-2.45v-2.74h-1.3v2.74h-1.13v1.15h1.13zm5.84-7.21v9.38h1.3V180c0-2.41 1.4-3.64 3.15-3.64h.07V175a3.31 3.31 0 0 0-3.22 2.2v-2.07zm12.41 3.35a3.48 3.48 0 0 0-.9-2.54 3.57 3.57 0 0 0-2.63-.94 6.46 6.46 0 0 0-3 .76l.41 1.06a5.12 5.12 0 0 1 2.39-.63 2.14 2.14 0 0 1 2.39 2.32v.56a7.71 7.71 0 0 0-2.41-.38c-2.07 0-3.46 1.1-3.46 3v.07a2.87 2.87 0 0 0 3 2.92 3.24 3.24 0 0 0 2.86-1.57v1.37H479zm-1.26 2.77a2.44 2.44 0 0 1-2.59 2.38 1.88 1.88 0 0 1-2-1.91v-.05c0-1.19.83-2 2.32-2a6.62 6.62 0 0 1 2.27.38zm7.1 3.44a3.5 3.5 0 0 0 3-2v1.8h1.3v-13h-1.3v5.37a3.48 3.48 0 0 0-3-1.93c-1.91 0-3.75 1.67-3.75 4.79v.18c0 3.16 1.84 4.79 3.75 4.79zm-2.41-5c0-2.3 1.19-3.62 2.68-3.62s2.83 1.4 2.83 3.62v.16c0 2.21-1.35 3.62-2.83 3.62s-2.68-1.35-2.68-3.64zm15.57 2.79a3.3 3.3 0 0 1-2.43 1.08c-1.48 0-2.75-1.15-2.9-3.22H499v-.54c0-2.83-1.41-4.84-3.76-4.84-2.2 0-3.87 2-3.87 4.86v.09c0 3 1.87 4.81 4.16 4.81a4.24 4.24 0 0 0 3.22-1.4zm-2.77-6.39c1.53 0 2.38 1.46 2.47 3.24h-5c.08-1.96 1.12-3.24 2.51-3.24zm-429.19 33.5l2.14-7.31 2.13 7.31h1.17l2.81-9.46h-1.32l-2.08 7.48-2.15-7.49h-1.1l-2.14 7.49-2.07-7.48h-1.37l2.81 9.46h1.17zm10.28-12.91h1.44v1.53h-1.44zm.07 3.45h1.3v9.38h-1.3zm3.35 1.16h1.13v6a2.1 2.1 0 0 0 2.34 2.32 3.18 3.18 0 0 0 1.4-.32v-1.12a2.79 2.79 0 0 1-1.1.25 1.19 1.19 0 0 1-1.35-1.35v-5.83h2.45v-1.15h-2.44v-2.69h-1.3v2.74h-1.13zm8.26.37v-5.15h-1.3v13H88v-5.71a2.44 2.44 0 0 1 2.38-2.68c1.37 0 2.16.94 2.16 2.61v5.78h1.3v-6.14c0-2.11-1.15-3.42-3.06-3.42a3 3 0 0 0-2.78 1.71zm20.3 3.93v-.05a3.63 3.63 0 0 0-3.89-3.8 4.85 4.85 0 0 0-2 .45l.25-4h5.13v-1.26h-6.3l-.32 6 .86.59a4.5 4.5 0 0 1 2.2-.58 2.53 2.53 0 0 1 2.74 2.63v.05a2.67 2.67 0 0 1-2.74 2.83 4.3 4.3 0 0 1-2.9-1.33l-.81 1a5.38 5.38 0 0 0 3.69 1.57 4 4 0 0 0 4.09-4.1zm11-2.32v-.14c0-3.78-1.76-6.41-4.55-6.41s-4.57 2.67-4.57 6.45v.14c0 3.78 1.75 6.41 4.55 6.41s4.57-2.72 4.57-6.45zm-4.55 5.22c-1.93 0-3.19-2.2-3.19-5.22v-.14c0-3 1.24-5.19 3.17-5.19s3.19 2.2 3.19 5.22v.14c0 3.03-1.25 5.19-3.17 5.19zm6.8-8.34h1.62v1.84h-1.62zm0 7.51h1.62v1.85h-1.62zm5.6-9.38v11.23h1.33v-12.67h-1.01l-2.61.99.24 1.17 2.05-.72zm9.03-1.77h1.3v13h-1.3zm7.44 3.49c-2.2 0-3.87 2-3.87 4.86v.09c0 3 1.87 4.81 4.16 4.81a4.25 4.25 0 0 0 3.22-1.4l-.74-.83a3.31 3.31 0 0 1-2.43 1.08c-1.48 0-2.75-1.15-2.9-3.22h6.3v-.54c.02-2.85-1.36-4.85-3.74-4.85zm-2.56 4.38c.13-2 1.17-3.24 2.56-3.24s2.38 1.46 2.47 3.24zm8.64-4.25h-1.4l3.46 9.46h1.17l3.44-9.46H155l-2.67 7.71-2.63-7.71zm15.2 4.67c0-2.83-1.41-4.84-3.76-4.84-2.2 0-3.87 2-3.87 4.86v.09c0 3 1.87 4.81 4.16 4.81a4.24 4.24 0 0 0 3.22-1.4l-.74-.83a3.3 3.3 0 0 1-2.43 1.08c-1.48 0-2.75-1.15-2.9-3.22h6.3c.02-.17.02-.43.02-.55zm-6.32-.47c.13-2 1.17-3.24 2.56-3.24s2.38 1.46 2.47 3.24zm9.7-2.13v-2.07H167v9.38h1.3V205c0-2.41 1.4-3.64 3.15-3.64h.07V200a3.31 3.31 0 0 0-3.24 2.2zm9.88 5.95v1.37h1.28v-6a3.48 3.48 0 0 0-.9-2.54 3.57 3.57 0 0 0-2.63-.94 6.46 6.46 0 0 0-3 .76l.41 1.06a5.12 5.12 0 0 1 2.39-.63 2.14 2.14 0 0 1 2.39 2.32v.56a7.71 7.71 0 0 0-2.41-.38c-2.07 0-3.46 1.1-3.46 3v.07a2.87 2.87 0 0 0 3 2.92 3.24 3.24 0 0 0 2.93-1.57zm-2.57.49a1.88 1.88 0 0 1-2-1.91v-.05c0-1.19.83-2 2.32-2a6.62 6.62 0 0 1 2.27.38v1.17a2.44 2.44 0 0 1-2.59 2.4zm12.69-6.83a3.56 3.56 0 0 0-3.08-1.81c-1.91 0-3.71 1.6-3.71 4.43v.07c0 2.83 1.78 4.41 3.69 4.41a3.57 3.57 0 0 0 3.1-1.93v1.37a2.57 2.57 0 0 1-2.86 2.81 5.58 5.58 0 0 1-3-.92l-.52 1a6.64 6.64 0 0 0 3.57 1 4.26 4.26 0 0 0 3.12-1.08 3.92 3.92 0 0 0 1-2.9v-8.14h-1.3zm0 2.63a3 3 0 0 1-2.83 3.26c-1.46 0-2.67-1.24-2.67-3.28 0-2.05 1.19-3.26 2.67-3.26a3 3 0 0 1 2.83 3.26zm7.32-4.44c-2.2 0-3.87 2-3.87 4.86v.09c0 3 1.87 4.81 4.16 4.81a4.25 4.25 0 0 0 3.22-1.4l-.74-.83a3.31 3.31 0 0 1-2.43 1.08c-1.48 0-2.75-1.15-2.9-3.22h6.3v-.54c.03-2.85-1.34-4.85-3.74-4.85zm-2.6 4.33c.13-2 1.17-3.24 2.56-3.24s2.38 1.46 2.47 3.24zm7.62 6.75l.22.61a2.21 2.21 0 0 0 1.91-2.45v-1.58h-1.62v1.85h.67c.05.76-.29 1.25-1.18 1.57zm10.5.04a2.49 2.49 0 0 1-1.22-.34l-.4 1.08a3.53 3.53 0 0 0 1.69.43c1.26 0 2.07-.67 2.74-2.61l3.33-9.54h-1.39l-2.52 7.72-2.81-7.72h-1.4l3.6 9.38c-.47 1.2-.92 1.6-1.62 1.6zm11.21-1.41c2.41 0 4.18-2.11 4.18-4.84v-.11c0-2.74-1.75-4.81-4.16-4.81s-4.18 2.09-4.18 4.83v.13c0 2.73 1.75 4.8 4.16 4.8zm-2.83-4.93c0-2.09 1.17-3.66 2.83-3.66s2.86 1.57 2.86 3.67v.09c0 2.07-1.19 3.65-2.84 3.65s-2.85-1.57-2.85-3.67zm16.17 4.73v-9.38h-1.3v5.73a2.42 2.42 0 0 1-2.38 2.67c-1.37 0-2.16-.94-2.16-2.61v-5.78h-1.3v6.16c0 2.09 1.15 3.4 3.06 3.4a3 3 0 0 0 2.77-1.71v1.53zm2.66-9.38v9.38h1.3V205c0-2.41 1.4-3.64 3.15-3.64h.07V200a3.31 3.31 0 0 0-3.22 2.2v-2.07zm23.37 9.38v-6.12c0-2.18-1.17-3.44-3-3.44a3.26 3.26 0 0 0-2.88 1.71 2.71 2.71 0 0 0-2.59-1.71 2.94 2.94 0 0 0-2.63 1.67v-1.49h-1.3v9.38h1.3v-5.71c0-1.58 1-2.68 2.21-2.68s2 .92 2 2.59v5.8h1.3v-5.73c0-1.69 1-2.67 2.21-2.67s2 .9 2 2.61v5.78zm5.42-5.81c-2.07 0-3.46 1.1-3.46 3v.07a2.87 2.87 0 0 0 3 2.92 3.24 3.24 0 0 0 2.86-1.57v1.37h1.28v-6a3.48 3.48 0 0 0-.9-2.54 3.57 3.57 0 0 0-2.63-.94 6.46 6.46 0 0 0-3 .76l.41 1.06a5.12 5.12 0 0 1 2.39-.63 2.14 2.14 0 0 1 2.39 2.32v.56a7.71 7.71 0 0 0-2.34-.38zm2.43 1.39v1.17a2.44 2.44 0 0 1-2.59 2.38 1.88 1.88 0 0 1-2-1.91v-.05c0-1.19.83-2 2.32-2a6.62 6.62 0 0 1 2.27.4zm3.77-4.96v9.38h1.3V205c0-2.41 1.4-3.64 3.15-3.64h.07V200a3.31 3.31 0 0 0-3.22 2.2v-2.07zm9.42 10.99a5.58 5.58 0 0 1-3-.92l-.52 1a6.64 6.64 0 0 0 3.57 1 4.26 4.26 0 0 0 3.12-1.08 3.92 3.92 0 0 0 1-2.9v-8.14h-1.3v1.67a3.56 3.56 0 0 0-3.08-1.85c-1.91 0-3.71 1.6-3.71 4.43v.07c0 2.83 1.78 4.41 3.69 4.41a3.57 3.57 0 0 0 3.1-1.93v1.37a2.57 2.57 0 0 1-2.87 2.87zm.07-3.42c-1.46 0-2.67-1.24-2.67-3.28 0-2.05 1.19-3.26 2.67-3.26a3 3 0 0 1 2.83 3.26v.05a3 3 0 0 1-2.83 3.23zm6.86-7.57h1.3v9.38h-1.3zm-.07-3.45h1.44v1.53h-1.44zm4.14 3.45v9.38H295v-5.71a2.44 2.44 0 0 1 2.38-2.68c1.37 0 2.16.94 2.16 2.61v5.78h1.3v-6.14c0-2.11-1.15-3.42-3.06-3.42a3 3 0 0 0-2.77 1.71v-1.53zm18.77 1.28h.07V200a3.31 3.31 0 0 0-3.22 2.2v-2.07h-1.3v9.38h1.3V205c0-2.36 1.41-3.59 3.15-3.59zm4.86-1.41c-2.2 0-3.87 2-3.87 4.86v.09c0 3 1.87 4.81 4.16 4.81a4.25 4.25 0 0 0 3.22-1.4l-.74-.83a3.31 3.31 0 0 1-2.43 1.08c-1.48 0-2.75-1.15-2.9-3.22h6.3v-.54c.02-2.85-1.38-4.85-3.74-4.85zm-2.56 4.38c.13-2 1.17-3.24 2.56-3.24s2.38 1.46 2.47 3.24zm14.73 3.33v4.5h1.3v-12.08h-1.3v1.75a3.48 3.48 0 0 0-3-1.93c-1.91 0-3.75 1.67-3.75 4.79v.18c0 3.13 1.84 4.77 3.75 4.77a3.5 3.5 0 0 0 3-1.98zm-5.46-2.83v-.14c0-2.3 1.19-3.62 2.68-3.62s2.83 1.4 2.83 3.62v.16c0 2.21-1.35 3.62-2.83 3.62s-2.68-1.35-2.68-3.63zm15.13 3.12v1.53h1.3v-9.38h-1.3v5.73a2.42 2.42 0 0 1-2.38 2.67c-1.37 0-2.16-.94-2.16-2.61v-5.78h-1.3v6.16c0 2.09 1.15 3.4 3.06 3.4a3 3 0 0 0 2.78-1.72zm4.06-7.87h1.3v9.38h-1.3zm-.07-3.45h1.44v1.53h-1.44zm8.59 4.73h.07V200a3.31 3.31 0 0 0-3.22 2.2v-2.07h-1.3v9.38h1.3V205c0-2.36 1.36-3.59 3.15-3.59zm8.62 3.39c0-2.83-1.4-4.84-3.76-4.84-2.2 0-3.87 2-3.87 4.86v.09c0 3 1.87 4.81 4.16 4.81a4.25 4.25 0 0 0 3.22-1.4l-.74-.83a3.31 3.31 0 0 1-2.43 1.08c-1.48 0-2.75-1.15-2.9-3.22h6.3c.02-.17.02-.43.02-.55zm-6.32-.47c.13-2 1.17-3.24 2.56-3.24s2.38 1.46 2.47 3.24zm15.25 5.18v-5.73c0-1.69 1-2.67 2.21-2.67s2 .9 2 2.61v5.78h1.3v-6.12c0-2.18-1.17-3.44-3-3.44a3.26 3.26 0 0 0-2.88 1.71 2.71 2.71 0 0 0-2.59-1.71 2.94 2.94 0 0 0-2.63 1.67v-1.49h-1.3v9.38h1.3v-5.71c0-1.58 1-2.68 2.21-2.68s2 .92 2 2.59v5.8zm15.24-4.71c0-2.83-1.4-4.84-3.76-4.84-2.2 0-3.87 2-3.87 4.86v.09c0 3 1.87 4.81 4.16 4.81a4.25 4.25 0 0 0 3.22-1.4l-.74-.83a3.31 3.31 0 0 1-2.43 1.08c-1.48 0-2.75-1.15-2.9-3.22h6.3c.02-.17.02-.43.02-.55zm-6.32-.47c.13-2 1.17-3.24 2.56-3.24s2.38 1.46 2.47 3.24zm15.54 5.18v-6.14c0-2.11-1.15-3.42-3.06-3.42a3 3 0 0 0-2.77 1.71v-1.53h-1.3v9.38H388v-5.71a2.44 2.44 0 0 1 2.38-2.68c1.37 0 2.16.94 2.16 2.61v5.78zm6.66-8.22v-1.15H398v-2.74h-1.3v2.74h-1.13v1.15h1.13v6a2.1 2.1 0 0 0 2.34 2.32 3.18 3.18 0 0 0 1.4-.32v-1.12a2.79 2.79 0 0 1-1.1.25 1.19 1.19 0 0 1-1.35-1.35v-5.83zm14.9 6.32l-2.14-7.49h-1.1l-2.14 7.49-2.07-7.48h-1.37l2.81 9.46h1.17l2.14-7.31 2.13 7.31h1.17l2.81-9.46h-1.32l-2.09 7.48zm5.51-7.48h1.3v9.38h-1.3zm-.07-3.45h1.44v1.53h-1.44zm4.24-.17h1.3v13h-1.3zm4.18 0h1.3v13h-1.3zm13.07 3.49a3.5 3.5 0 0 0-3 2v-5.42h-1.3v13h1.3v-1.75a3.47 3.47 0 0 0 3 1.93c1.91 0 3.75-1.67 3.75-4.79v-.18c-.04-3.18-1.84-4.79-3.75-4.79zm2.41 5c0 2.3-1.19 3.62-2.66 3.62s-2.84-1.4-2.84-3.6v-.18c0-2.2 1.37-3.62 2.84-3.62s2.66 1.35 2.66 3.64zm6.89-5c-2.2 0-3.87 2-3.87 4.86v.09c0 3 1.87 4.81 4.16 4.81a4.24 4.24 0 0 0 3.22-1.4l-.74-.83a3.3 3.3 0 0 1-2.43 1.08c-1.48 0-2.75-1.15-2.9-3.22h6.3v-.54c.03-2.85-1.33-4.85-3.74-4.85zm-2.59 4.33c.13-2 1.17-3.24 2.56-3.24s2.38 1.46 2.47 3.24zm17.28 6.97v-1.78a3.36 3.36 0 0 0 3.35-3.33c0-1.73-1-2.77-3.38-3.58v-4.51a4.74 4.74 0 0 1 2.36 1.15l.76-1a5.35 5.35 0 0 0-3.08-1.33v-1.1h-1v1.08a3.32 3.32 0 0 0-3.29 3.26c0 1.78 1 2.74 3.33 3.51v4.66a5 5 0 0 1-3-1.51l-.79 1a6 6 0 0 0 3.73 1.67v1.78zm0-7.33c1.62.56 2.09 1.24 2.09 2.25a2.13 2.13 0 0 1-2.09 2.13zm-3-3.89a2.05 2.05 0 0 1 2-2v4.21c-1.55-.59-2.02-1.18-2.02-2.21zm8.09 8.39v1H479v-1.26h-5.78l3.15-3.56c1.76-1.85 2.54-2.92 2.54-4.54v-.05a3.33 3.33 0 0 0-3.55-3.37 4.39 4.39 0 0 0-3.86 2.31l.94.79a3.41 3.41 0 0 1 2.83-1.8 2.17 2.17 0 0 1 2.27 2.25c0 1.17-.58 2.09-2.09 3.71zm9.8 1.04h.67c.05.76-.29 1.24-1.17 1.57l.22.61a2.21 2.21 0 0 0 1.91-2.45v-1.58h-1.62zm8.06-12.8c-2.79 0-4.57 2.67-4.57 6.45v.14c0 3.78 1.75 6.41 4.55 6.41s4.57-2.67 4.57-6.45v-.14c.01-3.78-1.78-6.41-4.55-6.41zm3.17 6.59c0 3-1.24 5.19-3.17 5.19s-3.19-2.2-3.19-5.22v-.14c0-3 1.24-5.19 3.17-5.19s3.19 2.2 3.19 5.22zm7.9-6.59c-2.79 0-4.57 2.67-4.57 6.45v.14c0 3.78 1.75 6.41 4.55 6.41s4.57-2.67 4.57-6.45v-.14c.01-3.78-1.76-6.41-4.55-6.41zm3.17 6.59c0 3-1.24 5.19-3.17 5.19s-3.19-2.2-3.19-5.22v-.14c0-3 1.24-5.19 3.17-5.19s3.19 2.2 3.19 5.22zm7.9-6.59c-2.79 0-4.57 2.67-4.57 6.45v.14c0 3.78 1.75 6.41 4.55 6.41s4.57-2.67 4.57-6.45v-.14c.01-3.78-1.76-6.41-4.55-6.41zm3.17 6.59c0 3-1.24 5.19-3.17 5.19s-3.19-2.2-3.19-5.22v-.14c0-3 1.24-5.19 3.17-5.19s3.19 2.2 3.19 5.22zm3.26 4.36h1.62v1.85h-1.62zM75.85 285.51v-7.92h2.47v-1.88h-6.95v1.88h2.46v7.92h2.02zM87.21 279v-.06a3.11 3.11 0 0 0-.83-2.27 3.65 3.65 0 0 0-2.66-.94H80v9.81h2v-3.22h1.27l1.81 3.22h2.33l-2.09-3.64a3 3 0 0 0 1.89-2.9zm-2 .06a1.41 1.41 0 0 1-1.6 1.47h-1.5v-3h1.46c1 0 1.64.49 1.64 1.47zm6.73-3.41l-3.52 9.86h2l.71-2.13h3.38l.73 2.13h2.1l-3.52-9.86zm-.14 5.94l1.08-3.19 1.06 3.19zm7.15-5.88v9.81h3.17a4.5 4.5 0 0 0 4.68-4.85v-.13a4.49 4.49 0 0 0-4.68-4.83zm5.74 4.88v.07c0 1.95-1.05 3-2.59 3H101v-6.14h1.12c1.52.02 2.57 1.12 2.57 3.06zm10.42 3.09h-4.36v-2.19h3.78v-1.83h-3.78v-2.12h4.3v-1.83h-6.32v9.8h6.38v-1.83zm8.27-6.26a3.43 3.43 0 0 1 2.09.91l1.13-1.54a4.66 4.66 0 0 0-3.17-1.21 2.91 2.91 0 0 0-3.21 2.87c0 1.68 1.08 2.34 2.82 3 1.4.53 1.68.84 1.68 1.33 0 .57-.48 1-1.26 1a3.76 3.76 0 0 1-2.46-1.08l-1.2 1.5a5.27 5.27 0 0 0 3.63 1.44c1.9 0 3.29-1.12 3.29-2.94 0-1.53-.92-2.25-2.63-2.93-1.53-.63-1.86-.9-1.86-1.46.01-.54.45-.89 1.15-.89zm5.28-1.71h2.03v9.81h-2.03zm11.12 8h-4.47l4.47-6.45v-1.55h-6.84v1.81h4.33l-4.47 6.44v1.55h6.98v-1.8zm8.34-6.17v-1.83h-6.32v9.8h6.38v-1.83h-4.36v-2.19h3.78v-1.83h-3.78v-2.12h4.3zM81.84 465.19l.39 1.95 3.42-1.2v18.72h2.22v-21.12h-1.68l-4.35 1.65zm10.74 19.47h1.11c.09 1.26-.48 2.07-2 2.61l.36 1c2.19-.57 3.18-1.71 3.18-4.08v-2.64h-2.7zM113.61 474c0-6.3-2.94-10.68-7.59-10.68s-7.62 4.44-7.62 10.74v.24c0 6.3 2.91 10.68 7.59 10.68s7.62-4.44 7.62-10.74zm-2.31.3c0 5-2.07 8.64-5.28 8.64s-5.31-3.66-5.31-8.7V474c0-5 2.07-8.64 5.28-8.64s5.31 3.66 5.31 8.7zm20.76-.05V474c0-6.3-2.94-10.68-7.59-10.68s-7.62 4.44-7.62 10.74v.24c0 6.3 2.91 10.68 7.59 10.68s7.62-4.43 7.62-10.73zm-12.9 0V474c0-5 2.07-8.64 5.28-8.64s5.31 3.66 5.31 8.7v.24c0 5-2.07 8.64-5.28 8.64s-5.31-3.65-5.31-8.69zm23.76-10.92c-4.65 0-7.62 4.44-7.62 10.74v.24c0 6.3 2.91 10.68 7.59 10.68s7.62-4.44 7.62-10.74V474c0-6.29-2.94-10.67-7.59-10.67zm5.28 11c0 5-2.07 8.64-5.28 8.64s-5.31-3.66-5.31-8.7V474c0-5 2.07-8.64 5.28-8.64s5.31 3.66 5.31 8.7zm-84.27-77.14l.39 1.95 3.42-1.2v18.72h2.22v-21.12h-1.68l-4.35 1.65zm17.94-1.86c-4.65 0-7.62 4.44-7.62 10.74v.24c0 6.3 2.91 10.68 7.59 10.68s7.62-4.44 7.62-10.74V406c0-6.29-2.94-10.67-7.59-10.67zm5.28 11c0 5-2.07 8.64-5.28 8.64s-5.31-3.66-5.31-8.7V406c0-5 2.07-8.64 5.28-8.64s5.31 3.66 5.31 8.7zm5.43 10.33h1.11c.09 1.26-.48 2.07-2 2.61l.36 1c2.19-.57 3.18-1.71 3.18-4.08v-2.64h-2.7zM106 395.33c-4.65 0-7.62 4.44-7.62 10.74v.24c0 6.3 2.91 10.68 7.59 10.68s7.62-4.44 7.62-10.74V406c.02-6.29-2.92-10.67-7.59-10.67zm5.28 11c0 5-2.07 8.64-5.28 8.64s-5.31-3.66-5.31-8.7V406c0-5 2.07-8.64 5.28-8.64s5.31 3.66 5.31 8.7zM124.44 417c4.65 0 7.62-4.44 7.62-10.74V406c0-6.3-2.94-10.68-7.59-10.68s-7.62 4.44-7.62 10.74v.24c0 6.31 2.91 10.7 7.59 10.7zm-5.28-11c0-5 2.07-8.64 5.28-8.64s5.31 3.66 5.31 8.7v.24c0 5-2.07 8.64-5.28 8.64s-5.31-3.66-5.31-8.7zm23.76-10.67c-4.65 0-7.62 4.44-7.62 10.74v.24c0 6.3 2.91 10.68 7.59 10.68s7.62-4.44 7.62-10.74V406c0-6.29-2.94-10.67-7.59-10.67zm5.28 11c0 5-2.07 8.64-5.28 8.64s-5.31-3.66-5.31-8.7V406c0-5 2.07-8.64 5.28-8.64s5.31 3.66 5.31 8.7zM45.48 330.19l.39 1.95 3.42-1.2v18.72h2.22v-21.12h-1.68l-4.35 1.65zm17.94-1.86c-4.65 0-7.62 4.44-7.62 10.74v.24c0 6.3 2.91 10.68 7.59 10.68S71 345.55 71 339.25V339c0-6.29-2.93-10.67-7.58-10.67zm5.28 11c0 5-2.07 8.64-5.28 8.64s-5.31-3.66-5.31-8.7V339c0-5 2.07-8.64 5.28-8.64s5.31 3.66 5.31 8.7zM81.84 350c4.65 0 7.62-4.44 7.62-10.74V339c0-6.3-2.94-10.68-7.59-10.68s-7.62 4.44-7.62 10.74v.24c0 6.31 2.91 10.7 7.59 10.7zm-5.28-11c0-5 2.07-8.64 5.28-8.64s5.31 3.66 5.31 8.7v.24c0 5-2.07 8.64-5.28 8.64s-5.31-3.66-5.31-8.7zm15.18 13.27l.36 1c2.19-.57 3.18-1.71 3.18-4.08v-2.64h-2.7v3.09h1.11c.09 1.28-.48 2.09-1.95 2.63zM106 350c4.65 0 7.62-4.44 7.62-10.74V339c0-6.3-2.94-10.68-7.59-10.68s-7.62 4.44-7.62 10.74v.24c-.01 6.31 2.9 10.7 7.59 10.7zm-5.28-11c0-5 2.07-8.64 5.28-8.64s5.31 3.66 5.31 8.7v.24c0 5-2.07 8.64-5.28 8.64s-5.31-3.66-5.31-8.7zm23.72 11c4.65 0 7.62-4.44 7.62-10.74V339c0-6.3-2.94-10.68-7.59-10.68s-7.62 4.44-7.62 10.74v.24c0 6.31 2.91 10.7 7.59 10.7zm-5.28-11c0-5 2.07-8.64 5.28-8.64s5.31 3.66 5.31 8.7v.24c0 5-2.07 8.64-5.28 8.64s-5.31-3.66-5.31-8.7zm23.73 11c4.65 0 7.62-4.44 7.62-10.74V339c0-6.3-2.94-10.68-7.59-10.68s-7.62 4.44-7.62 10.74v.24c0 6.31 2.91 10.7 7.59 10.7zm-5.28-11c0-5 2.07-8.64 5.28-8.64s5.31 3.66 5.31 8.7v.24c0 5-2.07 8.64-5.28 8.64s-5.31-3.66-5.31-8.7zm75.64 134.11v-7.47a7.91 7.91 0 0 1 3.93 1.92l1.26-1.68a8.92 8.92 0 0 0-5.13-2.22v-1.83h-1.74v1.8c-3.27.3-5.49 2.49-5.49 5.43 0 3 1.74 4.56 5.55 5.85v7.77a8.31 8.31 0 0 1-5-2.52l-1.32 1.68a10 10 0 0 0 6.21 2.79v3h1.74v-3c3.33-.3 5.58-2.49 5.58-5.55.05-2.88-1.54-4.62-5.59-5.97zm-1.62-.51c-2.58-1-3.36-2-3.36-3.66a3.42 3.42 0 0 1 3.36-3.33zm5.1 6.6a3.54 3.54 0 0 1-3.48 3.54v-7.32c2.7.93 3.48 2.07 3.48 3.75zm17.82 3.36h-9.63l5.25-5.94c2.94-3.09 4.23-4.86 4.23-7.56V469c0-3.3-2.49-5.61-5.91-5.61-3 0-4.92 1.41-6.48 3.75l1.56 1.32c1.41-2 2.79-3 4.71-3a3.61 3.61 0 0 1 3.78 3.75c0 2-1 3.48-3.48 6.18l-6.78 7.56v1.74h12.75zM253 474c0-6.3-2.94-10.68-7.59-10.68s-7.62 4.44-7.62 10.74v.24c0 6.3 2.91 10.68 7.59 10.68s7.62-4.44 7.62-10.74zm-2.31.3c0 5-2.07 8.64-5.28 8.64s-5.31-3.66-5.31-8.7V474c0-5 2.07-8.64 5.28-8.64s5.31 3.66 5.31 8.7zm-37.44-69.19v-7.47a7.91 7.91 0 0 1 3.93 1.92l1.26-1.68a8.92 8.92 0 0 0-5.13-2.22v-1.83h-1.74v1.8c-3.27.3-5.49 2.49-5.49 5.43 0 3 1.74 4.56 5.55 5.85v7.77a8.31 8.31 0 0 1-5-2.52l-1.32 1.68a10 10 0 0 0 6.21 2.79v3h1.74v-3c3.33-.3 5.58-2.49 5.58-5.55.05-2.88-1.54-4.62-5.59-5.97zm-1.62-.51c-2.58-1-3.36-2-3.36-3.66a3.42 3.42 0 0 1 3.36-3.33zm5.1 6.6a3.54 3.54 0 0 1-3.48 3.54v-7.32c2.7.93 3.48 2.07 3.48 3.75zm5.07 3.72v1.74h12.75v-2.1h-9.63l5.25-5.94c2.94-3.09 4.23-4.86 4.23-7.56V401c0-3.3-2.49-5.61-5.91-5.61-3 0-4.92 1.41-6.48 3.75l1.56 1.32c1.41-2 2.79-3 4.71-3a3.61 3.61 0 0 1 3.78 3.75c0 2-1 3.48-3.48 6.18zm15.96-8.61c0 6.3 2.91 10.68 7.59 10.68s7.62-4.44 7.62-10.74V406c0-6.3-2.94-10.68-7.59-10.68s-7.62 4.44-7.62 10.74zm2.31-.3c0-5 2.07-8.64 5.28-8.64s5.31 3.66 5.31 8.7v.24c0 5-2.07 8.64-5.28 8.64s-5.31-3.66-5.31-8.7zM263.8 417c4.65 0 7.62-4.44 7.62-10.74V406c0-6.3-2.94-10.68-7.59-10.68s-7.62 4.44-7.62 10.74v.24c0 6.31 2.91 10.7 7.59 10.7zm-5.28-11c0-5 2.07-8.64 5.28-8.64s5.31 3.66 5.31 8.7v.24c0 5-2.07 8.64-5.28 8.64s-5.31-3.66-5.31-8.7zm-45.27-67.89v-7.47a7.91 7.91 0 0 1 3.93 1.92l1.26-1.68a8.92 8.92 0 0 0-5.13-2.22v-1.83h-1.74v1.8c-3.27.3-5.49 2.49-5.49 5.43 0 3 1.74 4.56 5.55 5.85v7.77a8.31 8.31 0 0 1-5-2.52l-1.32 1.68a10 10 0 0 0 6.21 2.79v3h1.74v-3c3.33-.3 5.58-2.49 5.58-5.55.05-2.88-1.54-4.62-5.59-5.97zm-1.62-.51c-2.58-1-3.36-2-3.36-3.66a3.42 3.42 0 0 1 3.36-3.33zm5.1 6.6a3.54 3.54 0 0 1-3.48 3.54v-7.32c2.7.93 3.48 2.07 3.48 3.75zm5.27-12.09l1.56 1.32c1.41-2 2.79-3 4.71-3a3.61 3.61 0 0 1 3.78 3.75c0 2-1 3.48-3.48 6.18l-6.78 7.56v1.74h12.75v-2.1h-9.63l5.25-5.94c2.94-3.09 4.23-4.86 4.23-7.56V334c0-3.3-2.49-5.61-5.91-5.61-2.99-.03-4.91 1.38-6.48 3.72zm18.82 17.1v-2.64h-2.7v3.09h1.11c.09 1.26-.48 2.07-2 2.61l.36 1c2.24-.55 3.23-1.69 3.23-4.06zm18.33-9.96V339c0-6.3-2.94-10.68-7.59-10.68s-7.62 4.44-7.62 10.74v.24c0 6.3 2.91 10.68 7.59 10.68s7.62-4.43 7.62-10.73zm-7.59 8.7c-3.21 0-5.31-3.66-5.31-8.7V339c0-5 2.07-8.64 5.28-8.64s5.31 3.66 5.31 8.7v.24c0 5.05-2.07 8.7-5.28 8.7zM277.6 339c0-6.3-2.94-10.68-7.59-10.68s-7.62 4.44-7.62 10.74v.24c0 6.3 2.91 10.68 7.59 10.68s7.62-4.44 7.62-10.74zm-2.31.3c0 5-2.07 8.64-5.28 8.64s-5.31-3.66-5.31-8.7V339c0-5 2.07-8.64 5.28-8.64s5.31 3.66 5.31 8.7zm13.14 10.7c4.65 0 7.62-4.44 7.62-10.74V339c0-6.3-2.94-10.68-7.59-10.68s-7.62 4.44-7.62 10.74v.24c0 6.31 2.91 10.7 7.59 10.7zm-5.28-11c0-5 2.07-8.64 5.28-8.64s5.31 3.66 5.31 8.7v.24c0 5-2.07 8.64-5.28 8.64s-5.31-3.66-5.31-8.7zm-13.38 220.29H271l1.81 3.22h2.33l-2.09-3.64a3 3 0 0 0 1.82-2.9v-.06a3.11 3.11 0 0 0-.83-2.27 3.65 3.65 0 0 0-2.66-.94h-3.68v9.81h2zm0-4.75h1.46c1 0 1.64.49 1.64 1.47a1.41 1.41 0 0 1-1.6 1.47h-1.5zm13.47 6.14h-4.36v-2.19h3.78v-1.83h-3.78v-2.12h4.3v-1.83h-6.32v9.8h6.38v-1.83zm10.42-3v-.17c0-2.93-1.82-5-4.43-5s-4.44 2.06-4.44 5v.17c0 2.93 1.82 5 4.43 5a4.14 4.14 0 0 0 2.47-.78l1 .9 1.22-1.34-1-.85a5.54 5.54 0 0 0 .75-2.93zm-2.1 0a4.79 4.79 0 0 1-.21 1.51L290.1 558l-1.21 1.34 1.36 1.21a2.07 2.07 0 0 1-1 .22c-1.4 0-2.39-1.15-2.39-3.15v-.14c0-1.93 1-3.11 2.34-3.11s2.34 1.21 2.34 3.14zm7.66 4.99c2.27 0 3.75-1.3 3.75-4v-6h-2v6.05c0 1.36-.66 2-1.71 2s-1.71-.69-1.71-2.07v-6h-2v6c-.04 2.7 1.45 4.02 3.67 4.02zm6.01-9.96h2.03v9.81h-2.03zm9.52 9.8h2.33l-2.08-3.64a3 3 0 0 0 1.82-2.9v-.06a3.11 3.11 0 0 0-.83-2.27 3.65 3.65 0 0 0-2.66-.94h-3.68v9.81h2v-3.22h1.27zm-3.08-8h1.46c1 0 1.64.49 1.64 1.47a1.41 1.41 0 0 1-1.6 1.47h-1.5zm13.41.03v-1.83h-6.32v9.8h6.38v-1.83h-4.36v-2.19h3.78v-1.83h-3.78v-2.12h4.3zm2-1.83v9.81h3.17a4.5 4.5 0 0 0 4.68-4.85v-.13a4.49 4.49 0 0 0-4.68-4.83zm5.74 4.88v.07c0 1.95-1.05 3-2.59 3h-1.12v-6.14h1.12c1.54.02 2.59 1.12 2.59 3.06zm16.15 4.92v-9.8h-2.15l-2.15 3.98-2.19-3.98h-2.13v9.8h1.98v-6.23l2.3 4.02h.04l2.31-4.05v6.26h1.99zm10.53 0l-3.5-9.86h-2l-3.52 9.86h2l.71-2.13h3.38l.73 2.13zm-5.59-3.92l1.09-3.19 1.06 3.19zm14.59 3.92l-2.09-3.64a3 3 0 0 0 1.82-2.9v-.06a3.11 3.11 0 0 0-.83-2.27 3.65 3.65 0 0 0-2.66-.94h-3.68v9.81h2v-3.22h1.27l1.81 3.22zm-3.91-5h-1.5v-3h1.46c1 0 1.64.49 1.64 1.47a1.41 1.41 0 0 1-1.6 1.52zm9.79 5.14a5.69 5.69 0 0 0 3.49-1.22v-4.53h-3.71v1.76h1.78v1.74a2.48 2.48 0 0 1-1.46.41c-1.44 0-2.55-1.13-2.55-3.15v-.11c0-1.81 1.06-3.08 2.46-3.08a2.78 2.78 0 0 1 2 .84l1.21-1.58a4.59 4.59 0 0 0-3.21-1.15c-2.66 0-4.58 2.09-4.58 5v.13c.03 3.04 1.93 4.94 4.57 4.94zm5.64-9.94h2.03v9.81h-2.03zm10.02 5.71l-3.75-5.71h-1.86v9.8h1.99v-5.92l3.88 5.92h1.73v-9.8h-1.99v5.71z"/></svg>