<svg version="1.1" id="Layer_1" xmlns="http://www.w3.org/2000/svg" xmlns:xlink="http://www.w3.org/1999/xlink" x="0px" y="0px"
	 viewBox="0 0 582 350.5" enable-background="new 0 0 582 350.5" xml:space="preserve">
<pattern  y="-86.5" width="104" height="104" patternUnits="userSpaceOnUse" id="New_Pattern_Swatch_6" viewBox="0 -104 104 104" overflow="visible">
	<g>
		<polygon fill="none" points="0,0 104,0 104,-104 0,-104 		"/>
		<polygon fill="#FFFFFF" points="104,0 0,0 0,-104 104,-104 		"/>
	</g>
</pattern>
<rect fill="#073B51" width="582" height="350.5"/>
<g>
	<pattern  id="SVGID_1_" xlink:href="#New_Pattern_Swatch_6" patternTransform="matrix(1.3962 0 0 1.3962 3055.5439 2938.9824)">
	</pattern>
	<path fill="url(#SVGID_1_)" d="M165.7,154.1V154c0-4.5,2.8-7.9,6.9-7.9c2,0,3.3,0.6,4.7,1.7l-1,1.3c-0.9-0.8-2-1.4-3.7-1.4
		c-2.9,0-5.1,2.6-5.1,6.3v0.1c0,3.9,2.1,6.4,5.3,6.4c1.3,0,2.5-0.5,3.3-1.1V155h-3.9v-1.5h5.4v6.6c-1.2,1-2.9,1.8-5,1.8
		C168.4,162,165.7,158.8,165.7,154.1z"/>
	<pattern  id="SVGID_2_" xlink:href="#New_Pattern_Swatch_6" patternTransform="matrix(1.3962 0 0 1.3962 3055.5439 2938.9824)">
	</pattern>
	<path fill="url(#SVGID_2_)" d="M180.2,158.4L180.2,158.4c0-2.4,1.7-3.8,4.2-3.8c1.2,0,2.1,0.2,2.9,0.5v-0.7c0-1.8-1.1-2.8-2.9-2.8
		c-1.1,0-2.1,0.4-2.9,0.8L181,151c1.1-0.5,2.2-0.9,3.6-0.9c1.4,0,2.5,0.4,3.2,1.1c0.7,0.7,1.1,1.8,1.1,3.1v7.4h-1.6v-1.7
		c-0.7,1.1-1.8,1.9-3.5,1.9C181.9,162,180.2,160.7,180.2,158.4z M187.3,157.8v-1.4c-0.7-0.3-1.7-0.5-2.8-0.5c-1.8,0-2.8,0.9-2.8,2.4
		v0.1c0,1.4,1.1,2.3,2.4,2.3C185.9,160.7,187.3,159.4,187.3,157.8z"/>
	<pattern  id="SVGID_3_" xlink:href="#New_Pattern_Swatch_6" patternTransform="matrix(1.3962 0 0 1.3962 3055.5439 2938.9824)">
	</pattern>
	<path fill="url(#SVGID_3_)" d="M192,150.3h1.6v2.2c0.8-1.3,1.9-2.4,3.7-2.4c2.3,0,4.6,2,4.6,5.8v0.2c0,3.8-2.2,5.9-4.6,5.9
		c-1.8,0-3-1.1-3.7-2.4v5.4H192V150.3z M200.2,156.1v-0.2c0-2.8-1.5-4.4-3.3-4.4c-1.8,0-3.5,1.7-3.5,4.4v0.2c0,2.7,1.7,4.4,3.5,4.4
		C198.8,160.5,200.2,158.9,200.2,156.1z"/>
</g>
<g>
	<pattern  id="SVGID_4_" xlink:href="#New_Pattern_Swatch_6" patternTransform="matrix(1.3962 0 0 1.3962 3375.5439 2938.9824)">
	</pattern>
	<path fill="url(#SVGID_4_)" d="M485.7,154.1V154c0-4.5,2.8-7.9,6.9-7.9c2,0,3.3,0.6,4.7,1.7l-1,1.3c-0.9-0.8-2-1.4-3.7-1.4
		c-2.9,0-5.1,2.6-5.1,6.3v0.1c0,3.9,2.1,6.4,5.3,6.4c1.3,0,2.5-0.5,3.3-1.1V155h-3.9v-1.5h5.4v6.6c-1.2,1-2.9,1.8-5,1.8
		C488.4,162,485.7,158.8,485.7,154.1z"/>
	<pattern  id="SVGID_5_" xlink:href="#New_Pattern_Swatch_6" patternTransform="matrix(1.3962 0 0 1.3962 3375.5439 2938.9824)">
	</pattern>
	<path fill="url(#SVGID_5_)" d="M500.2,158.4L500.2,158.4c0-2.4,1.7-3.8,4.2-3.8c1.2,0,2.1,0.2,2.9,0.5v-0.7c0-1.8-1.1-2.8-2.9-2.8
		c-1.1,0-2.1,0.4-2.9,0.8L501,151c1.1-0.5,2.2-0.9,3.6-0.9c1.4,0,2.5,0.4,3.2,1.1c0.7,0.7,1.1,1.8,1.1,3.1v7.4h-1.6v-1.7
		c-0.7,1.1-1.8,1.9-3.5,1.9C501.9,162,500.2,160.7,500.2,158.4z M507.3,157.8v-1.4c-0.7-0.3-1.7-0.5-2.8-0.5c-1.8,0-2.8,0.9-2.8,2.4
		v0.1c0,1.4,1.1,2.3,2.4,2.3C505.9,160.7,507.3,159.4,507.3,157.8z"/>
	<pattern  id="SVGID_6_" xlink:href="#New_Pattern_Swatch_6" patternTransform="matrix(1.3962 0 0 1.3962 3375.5439 2938.9824)">
	</pattern>
	<path fill="url(#SVGID_6_)" d="M512,150.3h1.6v2.2c0.8-1.3,1.9-2.4,3.7-2.4c2.3,0,4.6,2,4.6,5.8v0.2c0,3.8-2.2,5.9-4.6,5.9
		c-1.8,0-3-1.1-3.7-2.4v5.4H512V150.3z M520.2,156.1v-0.2c0-2.8-1.5-4.4-3.3-4.4c-1.8,0-3.5,1.7-3.5,4.4v0.2c0,2.7,1.7,4.4,3.5,4.4
		C518.8,160.5,520.2,158.9,520.2,156.1z"/>
</g>
<path fill="#FFFFFF" d="M52.2,92.8v4.7h-2.7v-4.7h-6.3V75.2h6.3v-7.7h2.7v7.7h6.3v17.7H52.2z M79.5,110.2h-2.7v10h-5.3V93.8h-6.3
	v-7.7h-2.7v7.7h-6.3v29.7h6.3v4.7h2.7v-4.7h5.3v14.3h6.3v4.7h2.7v-4.7h6.3v-17.7h-6.3V110.2z M122.5,162.8h-2.7v10h-6.3v59.7h15.3
	v-59.7h-6.3V162.8z M181.2,259.8h-2.7v10h-6.3v-9.3h-6.3v-10h-2.7v10h-4.7v-20.3h-6.3v-17h-2.7v17h-5.3v-8.3h-6.3v-10h-2.7v10h-6.3
	v9.7h6.3v4.7h2.7v-4.7h5.3v19.3h13.7v9.3h15.3v17.3h6.3v4.7h2.7v-4.7h6.3v-17.7h-6.3V259.8z M272.7,146.8h-1v4h-3.5v4.7h3.5v3h1v-3
	h3.5v-4.7h-3.5V146.8z M278.6,151.2h3.5v3h1v-3h3.5v-25.7h-8V151.2z M295.1,139.2h-1v10h-3.5v4.7h3.5v5h1v-5h3.5v-4.7h-3.5V139.2z
	 M302.1,116.2h-1v14h-3.5v9.7h3.5v5h1v-5h3.5v-9.7h-3.5V116.2z M313.4,106.8h-1v4h-3.5v28.7h3.5v5h1v-5h3.5v-28.7h-3.5V106.8z
	 M326.1,97.2h-1v4h-3.5v24.7h3.5v3h1v-3h3.5v-24.7h-3.5V97.2z M338.4,72.8h-1v4h-3.5v48.7h3.5v3h1v-3h3.5V76.8h-3.5V72.8z
	 M352.1,86.5h-1v4h-3.5v24.7h8V90.5h-3.5V86.5z M358.2,97.2h3.5v3h1v-3h3.5V85.5h-8V97.2z M375.7,82.8h-1v4h-3.5v4.7h3.5v3h1v-3h3.5
	v-4.7h-3.5V82.8z M388.1,81.2h-1v5h-3.5v23.7h3.5v3h1v-3h3.5V86.2h-3.5V81.2z M400.4,99.5h-1v4h-3.5v24.7h3.5v3h1v-3h3.5v-24.7h-3.5
	V99.5z M417.7,128.5h-1v4h-2.5v-10.3h-3.5v-4h-1v4h-3.5v11.7h3.5v3h1v-3h2.5v8.3h3.5v3h1v-3h3.5v-9.7h-3.5V128.5z M431.5,170.2h-1v9
	H427v11.7h3.5v5h1v-5h3.5v-11.7h-3.5V170.2z M449.8,191.7h-1v4h-3.3v-7.2h-3.5v-4h-1v4h-3.5v8.7h3.5v3h1v-3h3.3v7.2h3.5v9h1v-9h3.5
	v-8.7h-3.5V191.7z M458.2,199.3h-1v4h-3.5v8.7h3.5v9h1v-9h3.5v-8.7h-3.5V199.3z M468.8,187h-1v9.3h-3.5v6.3h3.5v6h1v-6h3.5v-6.3
	h-3.5V187z M481.4,177.5h-1v4h-3.5v24.7h8v-24.7h-3.5V177.5z M491.8,199h-1v4h-3.5v4.7h3.5v3h1v-3h3.5V203h-3.5V199z M500.1,203.5
	h-1v3h-3.5v11.7h8v-11.7h-3.5V203.5z M509.2,194.7h-1v4h-3.5v8.7h3.5v3h1v-3h3.5v-8.7h-3.5V194.7z M516.6,224.8h3.5v4h1v-4h3.5
	v-24.7h-8V224.8z M536.9,218.5h-3.5v-4h-1v4h-3.5v8.7h3.5v3h1v-3h3.5V218.5z"/>
<g>
	
		<ellipse fill="none" stroke="#00A6DE" stroke-width="2" stroke-miterlimit="10" stroke-dasharray="5,5,5,5" cx="100" cy="162.2" rx="45.1" ry="34.3"/>
	
		<ellipse fill="none" stroke="#00A6DE" stroke-width="2" stroke-miterlimit="10" stroke-dasharray="5,5,5,5" cx="420" cy="162.2" rx="33.2" ry="25.2"/>
</g>
<g>
</g>
<g>
</g>
<g>
</g>
<g>
</g>
<g>
</g>
<g>
</g>
</svg>
